<svg xmlns="http://www.w3.org/2000/svg" xmlns:xlink="http://www.w3.org/1999/xlink" width="204" height="205" viewBox="0 0 204 205">
    <defs>
        <path id="a" d="M0 0h204v206.005H0z"/>
        <linearGradient id="c" x1="63.488%" y1="50%" y2="50%">
            <stop offset="0%" stop-opacity=".064"/>
            <stop offset="100%" stop-opacity="0"/>
        </linearGradient>
        <linearGradient id="d" x1="50%" x2="90.346%" y1="50%" y2="50%">
            <stop offset="0%" stop-opacity=".064"/>
            <stop offset="100%" stop-opacity="0"/>
        </linearGradient>
        <linearGradient id="e" x1="50%" x2="90.346%" y1="50%" y2="50%">
            <stop offset="0%" stop-opacity=".064"/>
            <stop offset="100%" stop-opacity="0"/>
        </linearGradient>
        <filter id="f" width="152.9%" height="142.8%" x="-26.4%" y="-21.4%" filterUnits="objectBoundingBox">
            <feOffset dy="3" in="SourceAlpha" result="shadowOffsetOuter1"/>
            <feGaussianBlur in="shadowOffsetOuter1" result="shadowBlurOuter1" stdDeviation="10.5"/>
            <feColorMatrix in="shadowBlurOuter1" result="shadowMatrixOuter1" values="0 0 0 0 0 0 0 0 0 0 0 0 0 0 0 0 0 0 0.172695879 0"/>
            <feMerge>
                <feMergeNode in="shadowMatrixOuter1"/>
                <feMergeNode in="SourceGraphic"/>
            </feMerge>
        </filter>
    </defs>
    <g fill="none" fill-rule="evenodd" transform="translate(0 -1.005)">
        <mask id="b" fill="#fff">
            <use xlink:href="#a"/>
        </mask>
        <g mask="url(#b)">
            <path fill="url(#c)" d="M25.5 105.736h168v40.784h-168z" transform="translate(10.5 49.916)"/>
            <path fill="url(#d)" d="M135 69.484h78v36.252h-78z" transform="translate(10.5 49.916)"/>
            <path fill="url(#e)" d="M210 55.889h-78v19.636H39V0h171v55.889z" transform="translate(10.5 49.916)"/>
            <path fill="#EF4056" d="M70.385 49.916h-20.77c-2.87 0-5.193 2.254-5.193 5.03v17.65H26.193c-2.866 0-5.193 2.25-5.193 5.025v20.112c0 2.78 2.327 5.03 5.193 5.03h18.229v17.65c0 2.78 2.327 5.03 5.193 5.03h20.77c2.866 0 5.193-2.25 5.193-5.03v-17.65h18.229c2.866 0 5.193-2.25 5.193-5.03V77.621c0-2.775-2.327-5.025-5.193-5.025H75.578v-17.65c0-2.776-2.323-5.03-5.193-5.03zM159.808 119.4h10.384c1.433 0 2.597 1.125 2.597 2.515v8.825h9.114c1.433 0 2.597 1.127 2.597 2.514v10.054c0 1.388-1.164 2.515-2.597 2.515h-9.114v8.825c0 1.39-1.164 2.515-2.597 2.515h-10.384c-.413 0-.803-.093-1.149-.259-.857-.41-1.448-1.265-1.448-2.256v-8.825h-9.114c-1.434 0-2.597-1.125-2.597-2.515v-10.054c0-1.39 1.163-2.514 2.597-2.514h9.114v-8.825c0-1.39 1.163-2.515 2.597-2.515zM10.5 179.56v-10.053c0-1.39 1.163-2.515 2.597-2.515h9.114v-8.825c0-1.39 1.163-2.515 2.597-2.515h10.384c1.433 0 2.597 1.125 2.597 2.515v8.825h9.114c1.433 0 2.597 1.127 2.597 2.515v10.054c0 1.388-1.164 2.514-2.597 2.514H37.79v8.826c0 1.39-1.164 2.514-2.597 2.514H24.808c-.448 0-.869-.11-1.236-.302-.81-.425-1.361-1.256-1.361-2.212v-8.826h-9.114c-1.434 0-2.597-1.125-2.597-2.514z"/>
        </g>
        <g filter="url(#f)" mask="url(#b)">
            <path fill="#70C1E1" d="M14.69 205.873l13.89 14.381 5.991-6.987-13.89-14.381-5.991 6.987"/>
            <path fill="#FFFFFE" d="M53.676 156.055l-33.489 42.851 14.688 15.76 39.99-47.848s13.448-55.84 16.872-71.494l-27.745 3.482-10.316 57.25"/>
            <path fill="#FFFFFE" d="M119.946 86.927h-30.21L64.54 98.872l.5 133.346h79.978l1.096-133.346-26.168-11.945"/>
            <path fill="#D3DFEA" d="M119.494 87.33l-1.7.947 12.397 22.388-19.113 9.82 15.783 6.269-34.877 29.43-16.955-32.975 11.961-3.43-12.921-8.254 18.754-26.98-1.596-1.117-19.914 28.65 10.985 7.017-10.084 2.89 19.158 37.267 39.236-33.109-14.819-5.886 17.08-8.775-13.375-24.152"/>
            <path fill="#D3DFEA" d="M92.434 158.407l-1.235-1.506-7.906 6.531.279 68.998h1.943l-.274-68.08 7.193-5.943"/>
            <path fill="#3CB4E7" d="M101.257 87.776l-13.376.1 4.359 67.542 28.777-67.791-19.114.15h-.646"/>
            <path fill="#37414E" d="M92.18 97.23l7.638 8.577 10.045-8.192-7.922-10.688L92.18 97.23"/>
            <path fill="#37414E" d="M96.685 102.421l-5.515 30.966 1.404 21.803 9.824-23.137 1.888-39.58-5.713-.648-1.888 10.596"/>
            <path fill="#EC9A99" d="M87.787 86.264s4.364 5.197 16.615 5.197c12.252 0 16.615-5.197 16.615-5.197V52.64h-33.23v33.625"/>
            <path fill="#CC6A68" d="M87.992 86.147c22.596-1.531 27.448-15.314 27.448-15.314H87.992v15.314"/>
            <path fill="#274D7C" d="M86.375 82.714l-11.051 34.418c-2.322 7.262.45 14.977 6.331 19.197v-.013a5.19 5.19 0 0 1 1.65-2.42c-4.835-3.496-7.104-9.864-5.183-15.858l10.13-31.546v-5.163h-1.327c-.193.455-.397.905-.55 1.385"/>
            <path fill="#274D7C" d="M81.26 136.23v.014a16.711 16.711 0 0 0 4.694 2.38l.903-2.808a13.848 13.848 0 0 1-3.946-2.006 5.186 5.186 0 0 0-1.651 2.42"/>
            <path fill="#969B9F" d="M88.159 133.36a5.117 5.117 0 0 0-4.836.919 5.186 5.186 0 0 0-1.651 2.42v.014a5.165 5.165 0 0 0 3.327 6.498 5.162 5.162 0 0 0 6.487-3.34 5.178 5.178 0 0 0-3.327-6.51"/>
            <path fill="#463336" d="M84.736 36.587v13.065h20.944V26.749H94.538c-5.414 0-9.802 4.404-9.802 9.838"/>
            <path fill="#CC6A68" d="M81.836 51.383v8.97a4.332 4.332 0 0 0 4.324 4.34V47.042c-2.388 0-4.324 1.944-4.324 4.342"/>
            <path fill="#EC9A99" d="M112.82 29.548h-12.612c-13.147 0-15.734 11.006-15.706 18.528v32.69c22.028 7.677 35.12-8.385 35.12-8.385V37.212c0-4.233-3.045-7.664-6.801-7.664"/>
            <path fill="#463336" d="M119.986 23.95c-4.37 0-7.913 3.556-7.913 7.942v24.371h18.007V34.082c0-5.596-4.52-10.132-10.094-10.132"/>
            <path fill="#EC9A99" d="M125.058 47.041c-2.416 0-4.375 1.967-4.375 4.391v13.262h4.375a4.333 4.333 0 0 0 4.325-4.34v-8.971a4.334 4.334 0 0 0-4.325-4.342"/>
            <path fill="#CC6A68" d="M93.613 57.042l-1.826-.204-.669 6.05h4.105v-1.845H93.17l.443-4.001"/>
            <path fill="#FFFFFE" d="M90.723 74.423s10.619 2.021 16.351-6.39h-16.35v6.39"/>
            <path fill="#EC9A99" d="M108.305 39.344v19.67h8.53V47.906c0-4.729-3.819-8.562-8.53-8.562"/>
            <path fill="#463336" d="M110.817 17.652H84.308V23.4c0 6.944 5.609 12.573 12.527 12.573h26.274v-5.981c0-6.814-5.504-12.339-12.292-12.339"/>
            <path fill="#37414E" d="M105.444 158.3l-29.782 42.622 44.915 31.619h22.79l22.267-31.869-60.19-42.371"/>
            <path fill="#70C1E1" d="M123.403 213.355l16.864 10.709 5.15-8.171-16.864-10.71-5.15 8.172"/>
            <path fill="#FFFFFE" d="M139.118 143.713l11.392 24.405-22.273 37.182 17.334 12.572L174 171.89s-19.771-59.685-28.556-73.068l-6.326 44.89"/>
            <path fill="#D3DFEA" d="M140.762 105.82l-8.131 27.774 8.202 15.842 1.726-.899-7.842-15.146 7.912-27.02-1.867-.551M152.069 168.626l13.967 2.158.295-1.929-13.966-2.157-.296 1.928"/>
            <path fill="#D3DFEA" d="M151.548 166.173l.815 1.772 13.968-6.473-.815-1.772-13.968 6.473M150.292 159.869l.849 1.756 7.522-3.666-.85-1.757-7.521 3.667"/>
            <path fill="#969B9F" d="M138.305 105.403l-4.528-.261c-7.003-.404-13.028 4.986-13.43 12.015l-1.254 21.898c-.437 7.625 3.589 12.997 10.016 13.368l.113-1.962c-6.49-.374-8.46-6.317-8.175-11.294l1.253-21.897c.341-5.948 5.439-10.509 11.364-10.167l4.53.262c5.925.341 10.469 5.458 10.128 11.405l-1.254 21.898c-.285 4.977-2.92 10.655-9.41 10.28l-.113 1.962c6.429.37 11.04-4.504 11.477-12.128l1.254-21.899c.402-7.029-4.968-13.076-11.97-13.48"/>
            <path fill="#274D7C" d="M138.542 104.414l-.13-.008.692-12.08c.481-8.404-8.877-16.943-17.916-17.994v2.87c7.095.767 15.383 7.996 14.985 14.955l-.691 12.08-1.47-.084c-7.272-.42-13.528 5.177-13.946 12.477l-.749 13.072 2.93.17.75-13.074c.325-5.677 5.191-10.03 10.847-9.704l4.529.261c5.656.326 9.993 5.21 9.668 10.888l-.748 13.073 2.93.17.75-13.074c.417-7.3-5.16-13.58-12.431-13.998M128.58 149.207a1.593 1.593 0 0 0-1.678 1.502c-.05.88.62 1.634 1.497 1.685a1.593 1.593 0 0 0 1.678-1.502c.05-.88-.62-1.635-1.496-1.685M138.34 149.907a1.593 1.593 0 0 0-1.678 1.501c-.05.88.62 1.635 1.497 1.685a1.592 1.592 0 0 0 1.678-1.501c.05-.88-.62-1.635-1.496-1.685"/>
        </g>
    </g>
</svg>
