<svg xmlns="http://www.w3.org/2000/svg" width="228" height="228" viewBox="0 0 228 228">
    <g fill="none" fill-rule="evenodd">
        <path d="M0 0h228v228H0z"/>
        <path fill="#EF4056" d="M56.943 132.116c.22.027.445.041.672.041h20.77c2.87 0 5.193-2.242 5.193-5.004v-17.565h18.229c2.866 0 5.193-2.239 5.193-5V84.573c0-2.766-2.327-5.005-5.193-5.005H83.578V62.004c0-2.647-2.131-4.811-4.828-4.992a5.485 5.485 0 0 0-.365-.012h-20.77c-2.87 0-5.193 2.242-5.193 5.004V79.57H34.193c-2.866 0-5.193 2.239-5.193 5v20.015c0 2.765 2.327 5.004 5.193 5.004h18.229v17.565c0 2.546 1.972 4.645 4.521 4.963z"/>
    </g>
</svg>
