<svg xmlns="http://www.w3.org/2000/svg" width="228" height="228" viewBox="0 0 228 228">
    <g fill="none" fill-rule="evenodd">
        <path fill="#EF4056" d="M137.627 82h-8.254c-1.14 0-2.064-.894-2.064-1.998v-7.01h-7.245c-1.139 0-2.064-.896-2.064-1.998v-3.08c0-.408.255-.76.62-.914a.998.998 0 0 1-.62-.915v-3.079c0-1.102.925-1.997 2.064-1.997h7.245v-7.011c0-1.104.925-1.998 2.064-1.998h8.254c.328 0 .638.074.913.205a1.993 1.993 0 0 1 1.151 1.793v7.01h7.245c1.14 0 2.064.894 2.064 1.998v7.988c0 1.104-.925 1.997-2.064 1.997h-7.245v7.011c0 1.104-.924 1.998-2.064 1.998zM139 142.792v-10.005c0-1.383 1.163-2.502 2.597-2.502h9.114v-8.783c0-1.383 1.163-2.502 2.597-2.502h10.384c1.433 0 2.597 1.12 2.597 2.502v8.783h9.114c1.433 0 2.597 1.12 2.597 2.502v3.856c0 .513-.321.953-.78 1.146.459.193.78.634.78 1.146v3.857c0 1.38-1.164 2.502-2.597 2.502h-9.114v8.782c0 1.383-1.164 2.503-2.597 2.503h-10.384c-.448 0-.869-.11-1.236-.301-.81-.423-1.361-1.25-1.361-2.202v-8.782h-9.114c-1.434 0-2.597-1.12-2.597-2.502z"/>
        <path d="M0 0h228v228H0z"/>
    </g>
</svg>
