<svg xmlns="http://www.w3.org/2000/svg" width="50" height="50" viewBox="0 0 50 50">
    <g fill="none" fill-rule="evenodd">
        <path d="M0 0h50v50H0z"/>
        <g stroke-width=".5">
            <path fill="#3CB4E7" stroke="#3CB4E7" d="M7.224 38.795c.3 1.738.902 2.88 1.786 3.394 1.214.706 3.29.811 4.42.811 2.9 0 6.527-.658 8.09-2.128 1.927-1.81 1.897-4.784 1.851-9.286-.008-.758-.016-1.564-.016-2.423v-5.4h3.293l-.003 5.4c0 .859-.009 1.665-.016 2.423-.046 4.502-.076 7.476 1.85 9.286C30.044 42.342 33.67 43 36.57 43c1.13 0 3.206-.105 4.42-.811.884-.514 1.486-1.656 1.786-3.394.972-5.616-1.275-15.806-5.737-21.039-2.304-2.7-5.008-4.188-7.612-4.188-2.707 0-2.735 3.067-2.777 7.71v1.207h-1.004V10.784l1.904-1.88L26.636 8 25 9.616 23.364 8l-.914.903 1.904 1.88v11.702h-.999v-.676l-.005-.531c-.042-4.643-.07-7.71-2.776-7.71-2.605 0-5.309 1.488-7.612 4.188-4.463 5.233-6.71 15.423-5.738 21.039zm20.698-7.196c.007-.762.016-1.573.016-2.436v-7.342l.005-.532c.04-4.352.119-6.444 1.484-6.444 2.217 0 4.569 1.326 6.623 3.735 4.173 4.893 6.357 14.769 5.452 20-.227 1.312-.642 2.202-1.167 2.508-.684.397-2.091.635-3.765.635-3.077 0-6.104-.747-7.2-1.776-1.518-1.428-1.492-4.033-1.448-8.348zM13.95 18.579c2.054-2.408 4.406-3.734 6.624-3.734 1.364 0 1.444 2.092 1.484 6.444l.005 7.874c0 .863.008 1.674.015 2.436.044 4.315.07 6.92-1.448 8.348-1.095 1.029-4.123 1.776-7.2 1.776-1.673 0-3.08-.238-3.765-.635-.525-.306-.94-1.196-1.167-2.509-.905-5.23 1.279-15.106 5.452-20z"/>
            <path fill="#EF4056" stroke="#EF4056" d="M25.646 22.485V10.784l1.904-1.88L26.636 8 25 9.616 23.364 8l-.914.903 1.904 1.88v11.702z"/>
        </g>
    </g>
</svg>
