<svg xmlns="http://www.w3.org/2000/svg" width="50" height="50" viewBox="0 0 50 50">
    <g fill="none" fill-rule="evenodd">
        <path d="M0 0h50v50H0z"/>
        <path fill="#3CB4E7" stroke="#3CB4E7" stroke-width=".4" d="M20 11.5c0 1.93 2.243 3.5 5 3.5s5-1.57 5-3.5S27.757 8 25 8s-5 1.57-5 3.5zm8.182 0c0 1.228-1.427 2.227-3.182 2.227-1.754 0-3.182-.999-3.182-2.227 0-1.228 1.428-2.227 3.182-2.227 1.755 0 3.182.999 3.182 2.227z"/>
        <path fill="#EF4056" stroke="#EF4056" stroke-width=".3" d="M33.183 12.404a5.388 5.388 0 0 1 1.79 4.028v11.784h-1.569V16.432c0-.947-.346-1.812-.914-2.47.26-.46.48-.946.658-1.454zm-15.7 1.56l-.037.042a3.767 3.767 0 0 0-.877 2.426v11.784H15V16.432c0-1.606.694-3.05 1.79-4.028.183.547.416 1.068.693 1.56zM21.472 23.805v3.605h7.029v-3.605h1.568v17.798h-1.568v-12.58h-7.029v12.58h-1.568V23.805h1.568z"/>
    </g>
</svg>
