<svg xmlns="http://www.w3.org/2000/svg" width="60" height="60" viewBox="0 0 60 60">
    <g fill="none" fill-rule="evenodd">
        <path d="M0 0h60v60H0z"/>
        <path fill="#3CB4E7" stroke="#3CB4E7" stroke-width=".5" d="M13.279 42.253c-.687 0-1.245.545-1.245 1.217s.558 1.217 1.245 1.217h4.15c.687 0 1.244-.545 1.244-1.217s-.557-1.217-1.244-1.217h-4.15zm4.526-16.996c.844 0 1.53-.668 1.53-1.494 0-.827-.686-1.496-1.53-1.496s-1.53.67-1.53 1.496.686 1.494 1.53 1.494zM2.49 21.656v4.055h6.636a8.408 8.408 0 0 1-.178-1.719c0-.81.124-1.592.34-2.336H2.49zm8.948 2.336c0 3.389 2.822 6.145 6.289 6.145 3.467 0 6.288-2.756 6.288-6.145 0-3.388-2.821-6.144-6.288-6.144s-6.289 2.756-6.289 6.144zm14.727-2.336c.217.744.34 1.526.34 2.336 0 .589-.061 1.164-.177 1.719h1.06v-4.055h-1.223zm-24.92 6.488C.557 28.144 0 27.599 0 26.927V20.44c0-.222.066-.428.173-.608A1.185 1.185 0 0 1 0 19.223v-3.257C0 12.499 1.77 9 5.726 9h17.69c2.413 0 6.462.905 6.462 6.966v.984c0 .672-.558 1.217-1.245 1.217-.688 0-1.245-.545-1.245-1.217v-.984c0-4.017-2.123-4.533-3.972-4.533H5.726c-3.145 0-3.236 4.069-3.236 4.533v3.257h7.945a8.832 8.832 0 0 1 7.292-3.809 8.832 8.832 0 0 1 7.292 3.809h3.614c.687 0 1.245.545 1.245 1.216v6.488c0 .672-.558 1.217-1.245 1.217h-3.23c-1.418 2.493-4.07 4.218-7.145 4.4v4.277c0 .671-.557 1.217-1.245 1.217H14.94c-.688 0-1.245-.546-1.245-1.217 0-.672.557-1.217 1.245-1.217h.83v-3.257a8.785 8.785 0 0 1-5.718-4.203H1.245zm23.453 20.474C21.62 51.539 18 52.066 15.5 51.994a8.938 8.938 0 0 1-.341.006c-1.642 0-5.244-.418-8.522-3.505-3.669-3.455-5.53-9.9-5.53-17.242 0-.672.557-1.217 1.245-1.217.687 0 1.245.545 1.245 1.217 0 6.561 1.648 12.553 4.768 15.49 2.92 2.75 6.189 2.853 7.125 2.82 2.12.054 5.02-.363 7.473-2.691 3.018-2.863 4.547-8.771 4.547-15.646 0-.672.558-1.217 1.245-1.217S30 30.554 30 31.226c0 7.557-1.784 14.054-5.302 17.392z"/>
    </g>
</svg>
