<svg xmlns="http://www.w3.org/2000/svg" width="60" height="60" viewBox="0 0 60 60">
    <g fill="none" fill-rule="evenodd">
        <path d="M0 0h60v60H0z"/>
        <path fill="#3CB4E7" d="M21.5 42a1.5 1.5 0 0 1 0 3h-19a1.5 1.5 0 0 1 0-3h19zm0-8a1.5 1.5 0 0 1 0 3h-19a1.5 1.5 0 0 1 0-3h19zm0-8a1.5 1.5 0 0 1 0 3h-19a1.5 1.5 0 0 1 0-3h19zm0-8a1.5 1.5 0 0 1 0 3h-19a1.5 1.5 0 0 1 0-3h19z"/>
        <path d="M9 12h36v36H9z"/>
        <path fill="#FFF" fill-rule="nonzero" stroke="#FFF" stroke-width="4" d="M24.5 37.5c-6.075 0-11-4.925-11-11s4.925-11 11-11 11 4.925 11 11-4.925 11-11 11z"/>
        <path fill="#3CB4E7" fill-rule="nonzero" d="M24.5 35.5a9 9 0 1 0 0-18 9 9 0 0 0 0 18zm0-3a6 6 0 1 1 0-12 6 6 0 0 1 0 12z"/>
        <path fill="#3CB4E7" fill-rule="nonzero" d="M29.091 31.091a2.25 2.25 0 0 1 3.182 0l8.667 8.667a2.25 2.25 0 0 1-3.182 3.182l-8.667-8.667a2.25 2.25 0 0 1 0-3.182zm2.121 2.121a.75.75 0 0 0 0-1.06l8.668 8.667a.75.75 0 0 0-1.061 1.06l-8.667-8.667a.75.75 0 0 0 1.06 0z"/>
    </g>
</svg>
