<?xml version="1.0" encoding="UTF-8" standalone="no"?>
<svg width="16px" height="18px" viewBox="0 0 16 18" version="1.1" xmlns="http://www.w3.org/2000/svg" xmlns:xlink="http://www.w3.org/1999/xlink">
    <!-- Generator: Sketch 45.2 (43514) - http://www.bohemiancoding.com/sketch -->
    <title>ico-calendar-red</title>
    <desc>Created with Sketch.</desc>
    <defs></defs>
    <g id="Page-1" stroke="none" stroke-width="1" fill="none" fill-rule="evenodd">
        <g id="ico-calendar-red" transform="translate(0.000000, -1.000000)" fill="#F04057">
            <path d="M14.69,17.853 L1.31,17.853 C1.20039907,17.8497447 1.11340885,17.7596477 1.114,17.65 L1.114,8.554 L14.886,8.554 L14.886,17.65 C14.886,17.76 14.796,17.853 14.69,17.853 L14.69,17.853 Z M1.31,3.976 L2.338,3.976 L2.338,4.566 C2.338,5.421 3.014,6.116 3.843,6.116 C4.673,6.116 5.348,5.421 5.348,4.566 L5.348,3.976 L10.472,3.976 L10.472,4.566 C10.472,5.421 11.147,6.116 11.977,6.116 C12.807,6.116 13.482,5.421 13.482,4.566 L13.482,3.976 L14.69,3.976 C14.797,3.976 14.886,4.069 14.886,4.179 L14.886,7.467 L1.114,7.467 L1.114,4.18 C1.114,4.07 1.204,3.977 1.31,3.977 L1.31,3.976 Z M3.393,2.551 C3.393,2.295 3.595,2.087 3.843,2.087 C4.091,2.087 4.293,2.295 4.293,2.551 L4.293,4.565 C4.29689878,4.81757405 4.09556612,5.02561779 3.843,5.03 C3.59043388,5.02561779 3.38910122,4.81757405 3.393,4.565 L3.393,2.551 Z M11.527,2.551 C11.527,2.295 11.729,2.087 11.977,2.087 C12.225,2.087 12.427,2.295 12.427,2.551 L12.427,4.565 C12.4308988,4.81757405 12.2295661,5.02561779 11.977,5.03 C11.7244339,5.02561779 11.5231012,4.81757405 11.527,4.565 L11.527,2.551 L11.527,2.551 Z M11.977,1 C12.807,1 13.482,1.696 13.482,2.55 L13.482,2.829 L14.69,2.829 C15.412,2.829 16,3.434 16,4.179 L16,17.65 C16,18.395 15.412,19 14.69,19 L1.31,19 C0.588,19 0,18.395 0,17.65 L0,4.18 C0,3.435 0.588,2.83 1.31,2.83 L2.338,2.83 L2.338,2.55 C2.338,1.696 3.014,1 3.843,1 C4.673,1 5.348,1.696 5.348,2.55 L5.348,2.829 L10.472,2.829 L10.472,2.55 C10.472,1.695 11.147,0.999 11.977,0.999 L11.977,1 Z M12,12.77 L9.333,12.77 L9.333,15.538 L12,15.538 L12,12.77 Z" id="Shape"></path>
        </g>
    </g>
</svg>