<svg xmlns="http://www.w3.org/2000/svg" width="60" height="60" viewBox="0 0 60 60">
    <g fill="none" fill-rule="evenodd">
        <path d="M0 0h60v60H0z"/>
        <path fill="#3CB4E7" d="M42.023 13.31v-1.517a.753.753 0 0 0-.744-.759h-.496c-.41 0-.744.34-.744.759v1.517c0 .419.334.759.744.759h.496c.41 0 .744-.34.744-.759zM6.095 31.521c1.882 0 3.415-1.561 3.415-3.481s-1.533-3.482-3.415-3.482c-1.883 0-3.416 1.562-3.416 3.482 0 1.92 1.533 3.481 3.416 3.481zm16.083-18.21c0 .418.334.758.744.758h.496c.41 0 .744-.34.744-.759v-1.517a.753.753 0 0 0-.744-.759h-.496c-.41 0-.744.34-.744.759v1.517zM45 11.033v6.88c0 5.892-3.722 10.9-8.864 12.654.05.211.08.43.08.655 0 .935-.45 1.759-1.139 2.303v3.04c0 8.51-6.9 15.434-15.38 15.434-8.481 0-15.38-6.923-15.38-15.433v-2.268c0-.106.01-.21.03-.31C1.838 33.221 0 30.846 0 28.04c0-3.425 2.734-6.212 6.095-6.212 3.36 0 6.094 2.787 6.094 6.213 0 3.013-2.116 5.53-4.912 6.093.006.055.016.109.016.166v2.268c0 6.836 5.564 12.399 12.404 12.399 6.839 0 12.403-5.563 12.403-12.4v-2.57c-1.147-.426-1.966-1.502-1.966-2.773 0-.047.012-.09.014-.137-6.19-.974-10.947-6.51-10.947-13.172v-6.88h.075C19.62 9.304 21.125 8 22.922 8h.496c2.051 0 3.721 1.701 3.721 3.793v1.517c0 2.092-1.67 3.793-3.721 3.793h-.496c-.255 0-.504-.026-.744-.076v.887c0 5.77 4.358 10.29 9.922 10.29 5.565 0 9.923-4.52 9.923-10.29v-.887c-.24.05-.49.076-.744.076h-.496c-2.052 0-3.721-1.7-3.721-3.793v-1.517C37.062 9.7 38.732 8 40.782 8h.497c1.796 0 3.3 1.305 3.646 3.034H45zM6.136 29.99c-1.045 0-1.892-.863-1.892-1.928 0-1.064.847-1.928 1.892-1.928 1.046 0 1.89.864 1.89 1.928 0 1.065-.844 1.928-1.89 1.928z"/>
    </g>
</svg>
