<svg xmlns="http://www.w3.org/2000/svg" width="24" height="24" viewBox="0 0 24 24">
    <g fill="none" fill-rule="evenodd">
        <path d="M0 0h24v24H0z"/>
        <path fill="#3CB4E7" fill-rule="nonzero" d="M12 10a3 3 0 1 0 0-6 3 3 0 0 0 0 6zm0 2a5 5 0 1 1 0-10 5 5 0 0 1 0 10zM5 22v-1.5A4.5 4.5 0 0 1 9.5 16h5a4.5 4.5 0 0 1 4.5 4.5V22h2v-1.5a6.5 6.5 0 0 0-6.5-6.5h-5A6.5 6.5 0 0 0 3 20.5V22h2zm-2 0h2v-1.5A4.5 4.5 0 0 1 9.5 16h5a4.5 4.5 0 0 1 4.5 4.5V22h2v-1.5a6.5 6.5 0 0 0-6.5-6.5h-5A6.5 6.5 0 0 0 3 20.5V22z"/>
    </g>
</svg>
