<svg xmlns="http://www.w3.org/2000/svg" width="50" height="50" viewBox="0 0 50 50">
    <g fill="none" fill-rule="evenodd">
        <path d="M0 0h50v50H0z"/>
        <path fill="#3CB4E7" stroke="#3CB4E7" stroke-width=".5" d="M42.182 23.225c-.378-.38-.89-.526-1.443-.41l-6.263.845 6.791-4.798c1.065-.707 1.112-1.889.609-2.69a2.085 2.085 0 0 0-.285-.36c-.653-.657-1.576-.748-2.411-.235l-4.862 3.008 5.022-5.36c.35-.353.543-.823.543-1.323s-.193-.97-.543-1.324l-.118-.118a1.834 1.834 0 0 0-1.312-.548c-.495 0-.961.194-1.292.529l-6.073 5.63 2.925-5.879c.485-.834.391-1.749-.247-2.392a2.048 2.048 0 0 0-.364-.291c-.779-.491-1.95-.5-2.695.658l-5.947 9.996-1.473 1.498c.705-1.338 1.564-3.288.437-4.858-.199-.277-1.174-1.4-1.974-1.422-1.684-.039-2.091 2.888-2.313 4.471-.236 1.69-.534 2.745-.797 3.677-.385 1.367-.693 2.46-.565 4.674A14192.456 14192.456 0 0 0 6.185 36.435l.882.945c.113-.102 11.442-10.318 11.557-10.42l.236-.213-.023-.32c-.162-2.202.115-3.184.498-4.543.26-.924.584-2.073.834-3.858.406-2.9.869-3.29.99-3.342.214.088.728.53.98.88.715.998.053 2.413-.75 3.898l-.192.353.229.33c.015.022.161.23.58.725.133.16.288.343.47.566.895 1.081 1.092 2.168.68 3.753l1.244.33c.508-1.95.24-3.442-.862-4.82l1.702-1.734 6.015-10.11c.341-.53.759-.349.923-.245.05.031.095.067.135.108.221.223.235.502.04.83l-4.534 9.107 1.01.77 8.68-8.048a.58.58 0 0 1 .803 0l.118.12a.572.572 0 0 1 .166.405.584.584 0 0 1-.179.418l-8.37 8.933.804 1 9-5.568c.323-.2.602-.183.83.046a.78.78 0 0 1 .107.136c.101.16.282.572-.244.921l-8.97 6.337.455 1.175 8.906-1.2c.227-.042.38-.043.457.277.085.35-.136.41-.197.426l-8.573 2.131-2.177 2.197c-.931.938-1.743 1.624-2.481 2.094-1.34.853-1.896 1.012-3.722 1.065l-.257.008L13.38 43.056l.913.915L24.537 33.58c1.866-.072 2.64-.318 4.114-1.257.82-.523 1.705-1.267 2.704-2.274l1.923-1.94 4.04-1.005 4.196-1.043c.877-.235 1.351-1.073 1.128-1.992a1.819 1.819 0 0 0-.46-.844"/>
        <path fill="#EF4056" stroke="#EF4056" stroke-width=".8" d="M28.649 27.772c.355 0 .643-.29.643-.65a.646.646 0 0 0-.643-.648.646.646 0 0 0-.644.649c0 .358.289.649.644.649M27.362 22.052a.646.646 0 0 0-.644.649c0 .358.289.649.644.649.355 0 .643-.29.643-.65a.646.646 0 0 0-.643-.648M24.222 29.192a.646.646 0 0 0-.643-.65.646.646 0 0 0-.644.65c0 .359.288.649.644.649.355 0 .643-.29.643-.65M21.92 24.815a.646.646 0 0 0-.643-.65.646.646 0 0 0-.644.65c0 .358.288.649.644.649.355 0 .643-.29.643-.65M19.99 32.401c0 .359.288.65.643.65.356 0 .644-.291.644-.65a.646.646 0 0 0-.644-.649.646.646 0 0 0-.643.65M17.496 32.401a.646.646 0 0 0-.643-.649.646.646 0 0 0-.644.65c0 .358.288.649.644.649.355 0 .643-.291.643-.65M15.566 37.144c0 .358.288.649.643.649.356 0 .644-.29.644-.65a.646.646 0 0 0-.644-.648.646.646 0 0 0-.643.649M11.906 36.495a.646.646 0 0 0-.643.649c0 .358.288.649.643.649.355 0 .644-.29.644-.65a.646.646 0 0 0-.644-.648"/>
    </g>
</svg>
