<svg xmlns="http://www.w3.org/2000/svg" width="50" height="50" viewBox="0 0 50 50">
    <g fill="none" fill-rule="evenodd">
        <path d="M0 0h50v50H0z"/>
        <path fill="#3CB4E7" stroke="#3CB4E7" stroke-width=".5" d="M37.863 31.881c-.165 2.986-.668 5.45-.963 5.947-.482.184-2.717.345-5.391.193l-1.33-.076v4.925h1.26V39.3c.056.003 5.266.29 6.236-.45 1.097-.835 1.442-6.836 1.446-6.896l2.076-.003c.566-.002.912-.118 1.12-.376.262-.324.306-.886.136-1.768-.276-1.434-2.638-7.371-3.356-9.156a15.506 15.506 0 0 0-.905-3.789c-1.588-4.215-4.898-7.491-9.08-8.99A14.823 14.823 0 0 0 24.096 7C15.772 7 9 13.89 9 22.36c0 5.013 2.417 9.723 6.467 12.6v7.91h1.259v-8.578l-.539-.383c-3.712-2.637-5.928-6.954-5.928-11.55 0-7.762 6.207-14.078 13.837-14.078 1.572 0 3.118.269 4.597.8 3.833 1.373 6.867 4.377 8.324 8.24.42 1.117.7 2.285.829 3.472l.02.177.065.166c1.83 4.552 3.12 8.053 3.286 8.917.056.289.074.486.077.614l-3.364.007-.067 1.207z"/>
        <path fill="#EF4056" fill-rule="nonzero" d="M21.651 33.946v9.303h3.163v-9.303c0-.889-.708-1.609-1.581-1.609-.874 0-1.582.72-1.582 1.609z"/>
    </g>
</svg>
