<svg xmlns="http://www.w3.org/2000/svg" width="20" height="20" viewBox="0 0 20 20">
    <path fill="#6F6F6F" fill-rule="evenodd" stroke="#6F6F6F" stroke-width=".5" d="M16.69 17.853H3.31a.202.202 0 0 1-.196-.203V8.554h13.772v9.096c0 .11-.09.203-.196.203zM3.31 3.976h1.028v.59c0 .855.676 1.55 1.505 1.55.83 0 1.505-.695 1.505-1.55v-.59h5.124v.59c0 .855.675 1.55 1.505 1.55.83 0 1.505-.695 1.505-1.55v-.59h1.208c.107 0 .196.093.196.203v3.288H3.114V4.18c0-.11.09-.203.196-.203zm2.083-1.425c0-.256.202-.464.45-.464s.45.208.45.464v2.014a.458.458 0 0 1-.45.465.458.458 0 0 1-.45-.465V2.551zm8.134 0c0-.256.202-.464.45-.464s.45.208.45.464v2.014a.458.458 0 0 1-.45.465.458.458 0 0 1-.45-.465V2.551zM13.977 1c.83 0 1.505.696 1.505 1.55v.279h1.208c.722 0 1.31.605 1.31 1.35V17.65c0 .745-.588 1.35-1.31 1.35H3.31C2.588 19 2 18.395 2 17.65V4.18c0-.745.588-1.35 1.31-1.35h1.028V2.55C4.338 1.696 5.014 1 5.843 1c.83 0 1.505.696 1.505 1.55v.279h5.124V2.55c0-.855.675-1.551 1.505-1.551zM14 12.77h-2.667v2.768H14V12.77z"/>
</svg>
