<svg xmlns="http://www.w3.org/2000/svg" width="24" height="24" viewBox="0 0 24 24">
    <g fill="none" fill-rule="evenodd">
        <path d="M0 0h24v24H0z"/>
        <path stroke="#3CB4E7" stroke-width="2" d="M12.64 4.383a5.997 5.997 0 0 1 1.58 5.693l6.765 6.765-1.21 2.39-3.295.187a1 1 0 0 1-1.01-1.303l.092-.288a.711.711 0 0 0-.968-.865.61.61 0 0 1-.807-.803l.02-.044a.523.523 0 0 0-.731-.67l-.7.383a1 1 0 0 1-1.188-.17L9.95 14.423a6 6 0 1 1 2.69-10.04zM9.105 6.504a2 2 0 1 0-2.829 2.829 2 2 0 0 0 2.829-2.829z"/>
    </g>
</svg>
