<svg xmlns="http://www.w3.org/2000/svg" width="24" height="24" viewBox="0 0 24 24">
    <g fill="none" fill-rule="evenodd">
        <path d="M0 0h24v24H0z"/>
        <path fill="#3CB4E7" fill-rule="nonzero" d="M4 6v13h16V6H4zm0-2h16a2 2 0 0 1 2 2v13a2 2 0 0 1-2 2H4a2 2 0 0 1-2-2V6a2 2 0 0 1 2-2z"/>
        <path fill="#3CB4E7" fill-rule="nonzero" d="M4 6.713V19h16V6.713l-8 7.88-8-7.88zm1.404-1.425L12 11.785l6.596-6.497A2 2 0 0 1 22 6.713V19a2 2 0 0 1-2 2H4a2 2 0 0 1-2-2V6.713a2 2 0 0 1 3.404-1.425z"/>
    </g>
</svg>
