<svg xmlns="http://www.w3.org/2000/svg" width="36" height="36" viewBox="0 0 36 36">
    <g fill="none" fill-rule="evenodd">
        <path d="M0 0h36v36H0z"/>
        <path stroke="#3CB4E7" d="M27.502 26.004a5.13 5.13 0 0 1-3.665 1.521c-1.388 0-2.69-.54-3.666-1.522l-.968-.969a6.132 6.132 0 0 0 .623-2.699 6.14 6.14 0 0 0-1.473-3.995l4.412-4.413 4.74 4.741a5.135 5.135 0 0 1 1.52 3.667c0 1.389-.54 2.69-1.523 3.669zM14.15 27.503V17.167a5.197 5.197 0 0 1 4.701 5.168 5.197 5.197 0 0 1-4.701 5.168zm-3.186-10.71l-.96-.961a5.135 5.135 0 0 1-1.521-3.667c0-1.389.54-2.69 1.523-3.669a5.132 5.132 0 0 1 3.665-1.521c1.389 0 2.69.54 3.667 1.522l4.738 4.74-4.411 4.414a6.134 6.134 0 0 0-4.002-1.481c-.967 0-1.883.224-2.699.623zm-2.49 5.542a5.196 5.196 0 0 1 4.702-5.167v10.334a5.196 5.196 0 0 1-4.702-5.167zm19.718-4.357L18.027 7.809A6.098 6.098 0 0 0 13.671 6c-1.65 0-3.197.643-4.354 1.807a6.103 6.103 0 0 0-1.808 4.358c0 1.65.642 3.198 1.807 4.357l.784.785A6.163 6.163 0 0 0 13.663 28.5a6.16 6.16 0 0 0 5.026-2.601l.792.792a6.097 6.097 0 0 0 4.356 1.809c1.65 0 3.197-.642 4.354-1.807A6.103 6.103 0 0 0 30 22.335c0-1.65-.642-3.198-1.808-4.357z"/>
    </g>
</svg>
