<svg xmlns="http://www.w3.org/2000/svg" width="50" height="50" viewBox="0 0 50 50">
    <g fill="none" fill-rule="evenodd">
        <path d="M0 0h50v50H0z"/>
        <g stroke-width=".5">
            <path fill="#3CB4E7" stroke="#3CB4E7" d="M14.61 35.04v7.869h1.26v-8.533l-.539-.38c-3.712-2.623-5.928-6.917-5.928-11.487 0-7.721 6.208-14.003 13.838-14.003 1.57 0 3.117.268 4.596.795 3.834 1.367 6.867 4.354 8.324 8.196.42 1.11.7 2.273.829 3.454l.02.175.066.165c1.83 4.528 3.12 8.01 3.285 8.87.056.286.074.483.077.61-.03.002-.062.002-.099.002l-3.265.005-.067 1.201c-.165 2.97-.668 5.42-.962 5.915-.482.182-2.718.343-5.392.19l-1.33-.074v4.899h1.26v-3.552c.056.004 5.266.289 6.236-.446 1.097-.832 1.442-6.8 1.446-6.86l2.076-.003c.566-.001.912-.117 1.12-.374.263-.322.306-.88.136-1.758-.275-1.427-2.638-7.332-3.356-9.106a15.356 15.356 0 0 0-.904-3.77c-1.59-4.191-4.9-7.45-9.081-8.94a14.888 14.888 0 0 0-5.016-.868c-8.324 0-15.096 6.853-15.096 15.277 0 4.986 2.418 9.67 6.466 12.532"/>
            <path fill="#EF4056" stroke="#EF4056" d="M25.236 24.572c-1.507-2.172-3.447-4.296-5.246-6.204-.507.801-.771 1.205-1.38 2.265-1.49-1.415-3.33-3.057-5.017-4.24 1.504 2.197 3.707 4.585 5.261 6.224.494-.792.794-1.262 1.376-2.281 1.532 1.45 3.288 3.016 5.006 4.236M17.214 26.321c-.172.882-.235 1.165-.348 1.957-1.375-.51-3.003-1.037-4.467-1.274 1.675 1.261 3.779 2.253 5.429 3.012.16-.857.228-1.196.336-1.97 1.363.501 2.946 1.02 4.458 1.277-1.699-1.258-3.787-2.248-5.408-3.002M26.499 10.786c-.48 2.155-.578 4.598-.632 6.716.867-.192 1.238-.268 2.085-.496.071 1.622.215 3.473.573 5.134.474-2.205.571-4.667.629-6.693-.883.188-1.205.25-2.076.481-.069-1.631-.222-3.537-.58-5.142"/>
        </g>
    </g>
</svg>
