<?xml version="1.0" encoding="UTF-8" standalone="no"?>
<svg width="8px" height="12px" viewBox="0 0 8 12" version="1.1" xmlns="http://www.w3.org/2000/svg" xmlns:xlink="http://www.w3.org/1999/xlink">
    <!-- Generator: Sketch 45.2 (43514) - http://www.bohemiancoding.com/sketch -->
    <title>ico-voltar</title>
    <desc>Created with Sketch.</desc>
    <defs></defs>
    <g id="Page-1" stroke="none" stroke-width="1" fill="none" fill-rule="evenodd">
        <g id="seta-back-barra" transform="translate(-6.000000, -4.000000)" stroke="#DADADA" fill-rule="nonzero" fill="#DADADA">
            <path d="M12.175,15 C11.9541623,15.0014532 11.7414492,14.9167984 11.582,14.764 L7.234,10.544 C7.08425851,10.4026846 6.99938874,10.2058945 6.99938874,10 C6.99938874,9.79410546 7.08425851,9.59731543 7.234,9.456 L11.582,5.236 C11.9074348,4.926517 12.4162099,4.91954748 12.75,5.22 C12.9058274,5.35973045 12.9961778,5.55821912 12.9992163,5.76749777 C13.0022548,5.97677641 12.9177051,6.17780446 12.766,6.322 L8.944,10 L12.766,13.677 C12.9177051,13.8211955 13.0022548,14.0222236 12.9992163,14.2315022 C12.9961778,14.4407809 12.9058274,14.6392695 12.75,14.779 C12.5928644,14.9222239 12.387611,15.0011126 12.175,15 L12.175,15 Z" id="ico-voltar"></path>
        </g>
    </g>
</svg>