<svg xmlns="http://www.w3.org/2000/svg" width="50" height="50" viewBox="0 0 50 50">
    <g fill="none" fill-rule="evenodd">
        <path d="M0 0h50v50H0z"/>
        <path fill="#3CB4E7" d="M15.498 16c0 4.962 4.038 9 9 9 4.963 0 9-4.038 9-9 0-4.963-4.037-9-9-9-4.962 0-9 4.037-9 9zm15.767 0a6.774 6.774 0 0 1-6.766 6.767A6.775 6.775 0 0 1 17.732 16a6.774 6.774 0 0 1 6.767-6.767A6.774 6.774 0 0 1 31.265 16zM17 29h15c3.208.452 5.644 2.986 6 6v8h2v-8c0-4.366-3.493-8-8-8H17c-4.507 0-8 3.634-8 8v8h2v-8c.356-3.014 2.792-5.548 6-6z"/>
        <path fill="#EF4056" d="M24.012 37.208A376.204 376.204 0 0 0 29.002 42a376.204 376.204 0 0 0 4.989-4.792c.653-.645 1.011-1.457 1.009-2.284 0-.77-.314-1.504-.88-2.06a3.032 3.032 0 0 0-4.246.005l-.873.864-.875-.864a3.032 3.032 0 0 0-4.245-.005A2.88 2.88 0 0 0 23 34.921c0 .83.359 1.642 1.012 2.287z"/>
    </g>
</svg>
