<svg xmlns="http://www.w3.org/2000/svg" width="24" height="24" viewBox="0 0 24 24">
    <path fill="#3CB4E7" fill-rule="evenodd" stroke="#3CB4E7" stroke-width=".5" d="M21.712 3.175c-2.028-2.076-4.663-.947-5.775-.06l-9.428 9.65c-1.316 1.349-1.126 2.955-.257 3.845.912.935 2.592 1.107 4.036-.373l7.817-8.006-.96-.983-7.816 8.007c-.857.878-1.68.82-2.118.372-.393-.402-.465-1.139.258-1.88l9.33-9.557a4.626 4.626 0 0 1 1.375-.678c1.025-.293 1.868-.082 2.578.646.775.793 1.041 1.6.814 2.47-.174.666-.639 1.39-1.382 2.15L9.94 19.273a4.714 4.714 0 0 1-2.553 1.296c-1.311.197-2.531-.273-3.626-1.395-1.096-1.121-1.554-2.371-1.362-3.715.162-1.138.76-2.097 1.265-2.615l9.381-9.609-.96-.982-9.38 9.609a6.303 6.303 0 0 0-1.648 3.396c-.177 1.239-.018 3.094 1.744 4.899C4.223 21.613 5.677 22 6.821 22c.273 0 .529-.022.762-.057 1.812-.271 2.996-1.36 3.316-1.688L21.144 9.76c.926-.948 1.493-1.856 1.733-2.774.246-.943.243-2.369-1.165-3.812"/>
</svg>
