<svg xmlns="http://www.w3.org/2000/svg" width="50" height="50" viewBox="0 0 50 50">
    <g fill="none" fill-rule="evenodd">
        <path d="M0 0h50v50H0z"/>
        <path fill="#3CB4E7" stroke="#3CB4E7" stroke-width=".5" d="M36.983 21.1H19.102V9.805H10v17.663c0 1.29 1.181 1.635 2.13 1.912 1.43.417 2.78.812 2.78 3.348V42h19.425l1.106-9.469C38.37 31.19 40 28.457 40 24.696v-.643c-.052-1.636-1.384-2.953-3.017-2.953zm0 1.285c.93 0 1.69.741 1.737 1.668H19.102v-1.668h17.88zm-25.708.163h6.551V11.091h-6.55v11.457zm12.766 7.365h-1.65c1.454 2.386 6.018 4.003 10.194 3.43a11.028 11.028 0 0 0 1.514-.318l-.898 7.69H20.57l-.897-10.802h-1.28l.897 10.801h-3.106v-7.986c0-3.503-2.226-4.153-3.7-4.583-.983-.287-1.21-.414-1.21-.677v-3.634h6.551v1.505h20.88c-.288 5.126-4.028 6.42-6.292 6.73-3.34.456-6.813-.688-8.373-2.156z"/>
        <path stroke="#EF4056" stroke-linecap="round" stroke-width="2.4" d="M21.447 9.402v11.29"/>
    </g>
</svg>
