<svg xmlns="http://www.w3.org/2000/svg" width="50" height="50" viewBox="0 0 50 50">
    <g fill="none" fill-rule="evenodd">
        <path d="M0 0h50v50H0z"/>
        <g stroke-width=".5">
            <path fill="#3CB4E7" stroke="#3CB4E7" d="M22.493 7c1.759 0 3.49.292 5.146.867 4.292 1.49 7.689 4.75 9.32 8.942.471 1.212.784 2.48.928 3.768.736 1.775 3.161 7.68 3.444 9.107.174.877.13 1.436-.14 1.758-.213.257-.568.373-1.149.373l-2.152.004-.165 1.79h-4.65v-1.275h3.47l.165-1.788 3.33-.005c.038 0 .072 0 .1-.002a3.625 3.625 0 0 0-.077-.611c-.17-.86-1.495-4.34-3.372-8.87l-.068-.164-.02-.175a13.77 13.77 0 0 0-.85-3.454c-1.496-3.843-4.61-6.83-8.543-8.196a14.343 14.343 0 0 0-4.717-.795c-7.83 0-14.2 6.282-14.2 14.003 0 4.57 2.274 8.864 6.083 11.487l.552.38v8.532h-1.292V34.81C9.481 31.948 7 27.263 7 22.277 7 13.853 13.95 7 22.493 7zm15.026 28.52l-.153.761c-.402 2.001-.764 2.269-.938 2.397-.996.735-6.343.45-6.4.447v3.551h-1.293v-4.899l1.364.076c2.736.151 5.026-.008 5.53-.19.046-.085.155-.32.297-.869h-2.85V35.52h4.443z"/>
            <path fill="#EF4056" stroke="#EF4056" d="M41.134 34.916a.788.788 0 0 0 .787-.788v-.005a.788.788 0 1 0-1.575 0v.005c0 .435.353.788.788.788zM44.525 34.916h.232a.79.79 0 1 0 0-1.58h-.232a.79.79 0 0 0 0 1.58zM48.148 34.916a.788.788 0 0 0 .787-.788v-.005a.788.788 0 1 0-1.575 0v.005c0 .435.353.788.788.788zM41.354 37.367l.024-.054a.71.71 0 0 0-.423-.96.847.847 0 0 0-1.047.461l-.023.055a.71.71 0 0 0 .422.959.847.847 0 0 0 1.047-.461zM45.133 38.617a.738.738 0 0 0-.438-.995l-.359-.122a.879.879 0 0 0-1.087.479.738.738 0 0 0 .439.995l.358.122a.88.88 0 0 0 1.087-.479zM48.474 39.782l.023-.055a.71.71 0 0 0-.422-.958.847.847 0 0 0-1.047.46l-.023.054a.71.71 0 0 0 .422.96.847.847 0 0 0 1.047-.461z"/>
        </g>
    </g>
</svg>
