<svg xmlns="http://www.w3.org/2000/svg" width="50" height="50" viewBox="0 0 50 50">
    <g fill="none" fill-rule="evenodd">
        <path d="M0 0h50v50H0z"/>
        <path fill="#3CB4E7" stroke="#3CB4E7" stroke-width=".5" d="M20.274 36.736c.24.393.45.785.633 1.177l-4.459 4.475-.908-.9zm-6.997-6.133c.414.156.836.348 1.267.583L9.26 35.901l-.877-.93c.011-.011.016-.016 4.771-4.258zM32.233 7.148c.74-1.14 1.907-1.13 2.681-.647.133.082.254.179.362.286.634.633.728 1.534.245 2.355l-2.91 5.786 6.042-5.542c.328-.329.792-.52 1.285-.52.493 0 .956.191 1.304.539l.117.117c.349.347.54.81.54 1.302 0 .493-.191.955-.54 1.303l-4.994 5.275 4.836-2.96c.83-.505 1.748-.416 2.397.232.108.107.203.226.284.354.5.788.453 1.95-.606 2.647l-6.754 4.722 6.229-.83c.55-.116 1.06.028 1.435.403.218.217.38.512.458.83.222.905-.25 1.73-1.122 1.96l-4.173 1.027-4.018.988-1.913 1.91c-.994.992-1.874 1.724-2.69 2.239-1.465.924-2.236 1.166-4.092 1.237l-1.67 1.675c-.211-.371-.444-.74-.7-1.108l1.822-1.83.255-.006c1.817-.053 2.37-.21 3.702-1.049.735-.463 1.542-1.137 2.468-2.061l2.165-2.162 8.527-2.098c.06-.016.28-.074.196-.419-.077-.315-.23-.314-.455-.273l-8.858 1.181-.452-1.156 8.921-6.237c.523-.344.344-.748.243-.907a.77.77 0 0 0-.107-.134c-.226-.225-.504-.24-.825-.045l-8.951 5.48-.8-.984 8.325-8.792a.572.572 0 0 0 .178-.412.56.56 0 0 0-.165-.398l-.118-.117a.58.58 0 0 0-.799 0l-8.632 7.92-1.005-.758 4.51-8.964c.193-.322.18-.597-.04-.817a.759.759 0 0 0-.135-.106c-.163-.101-.578-.28-.918.241l-5.982 9.952-1.693 1.705c1.096 1.357 1.363 2.827.857 4.745l-1.237-.325c.41-1.56.214-2.63-.676-3.693-.18-.22-.335-.4-.468-.557-.416-.489-.561-.692-.577-.714l-.227-.325.19-.348c.8-1.461 1.458-2.854.746-3.836-.25-.344-.761-.78-.975-.866-.12.051-.58.435-.983 3.29-.249 1.756-.571 2.887-.83 3.796-.381 1.338-.656 2.305-.496 4.472l.024.314-.235.21c-.032.027-.892.795-2.129 1.899-.405-.233-.81-.442-1.216-.63L19.67 24.9c-.128-2.178.179-3.255.562-4.6.261-.917.557-1.956.792-3.619.22-1.558.626-4.439 2.3-4.4.797.02 1.767 1.127 1.964 1.4 1.121 1.544.267 3.463-.435 4.78l1.465-1.474z"/>
        <path fill="#EF4056" d="M8.654 29.578l2.486 1.01a.4.4 0 0 0 .544-.299l.674-3.681a.4.4 0 0 0-.651-.378l-3.16 2.672a.4.4 0 0 0 .107.676z"/>
        <path fill="#EF4056" d="M11.812 27.113c2.85-.51 5.831.792 8.944 3.905 3.028 3.028 4.265 6.013 3.712 8.955a.8.8 0 0 1-.221.418l-.67.67a.457.457 0 0 1-.78-.314c-.05-2.583-1.355-5.153-3.91-7.71-2.937-2.936-5.52-4.157-7.746-3.663l.671-2.261z"/>
        <path fill="#EF4056" stroke="#EF4056" stroke-width=".5" d="M16.78 22.01c-1.524-2.15-3.487-4.252-5.308-6.14-.513.793-.78 1.193-1.396 2.242-1.506-1.4-3.37-3.025-5.076-4.195 1.522 2.173 3.751 4.536 5.323 6.158.5-.784.804-1.248 1.393-2.257 1.55 1.434 3.327 2.984 5.064 4.192M42.38 43.385c-1.524-2.15-3.487-4.252-5.308-6.14-.513.793-.78 1.193-1.396 2.242-1.506-1.4-3.37-3.025-5.076-4.195 1.522 2.173 3.751 4.536 5.323 6.158.5-.784.804-1.248 1.393-2.257 1.55 1.434 3.327 2.984 5.064 4.192"/>
    </g>
</svg>
