<svg xmlns="http://www.w3.org/2000/svg" width="50" height="50" viewBox="0 0 50 50">
    <g fill="none" fill-rule="evenodd">
        <path d="M0 0h50v50H0z"/>
        <path fill="#3CB4E7" stroke="#3CB4E7" stroke-width=".3" d="M20 10c0 2.757 2.243 5 5 5s5-2.243 5-5-2.243-5-5-5-5 2.243-5 5zm8.182 0A3.185 3.185 0 0 1 25 13.182 3.186 3.186 0 0 1 21.818 10 3.185 3.185 0 0 1 25 6.818 3.185 3.185 0 0 1 28.182 10zM16.569 22.432c0-2.05 1.622-3.72 3.615-3.72h9.605c1.993 0 3.615 1.67 3.615 3.72v5.354h1.569v-5.354c0-2.94-2.326-5.333-5.184-5.333h-9.605c-2.859 0-5.184 2.392-5.184 5.333v11.784h1.569V22.432"/>
        <path fill="#3CB4E7" stroke="#3CB4E7" stroke-width=".3" d="M21.472 25.805v8.605h8.597v11.193h-1.568v-9.58h-7.029v9.58h-1.568V25.805h1.568zm8.597 0v2.98h-1.568v-2.98h1.568z"/>
        <path fill="#EF4056" d="M32 33h2v-2h-2zM35 35h2v-2h-2zM37 38h2v-2h-2zM38 41h2v-2h-2zM28 32h2v-2h-2zM24 33h2v-2h-2z"/>
    </g>
</svg>
