<svg xmlns="http://www.w3.org/2000/svg" width="50" height="50" viewBox="0 0 50 50">
    <g fill="none" fill-rule="evenodd">
        <path d="M0 0h50v50H0z"/>
        <path fill="#3CB4E7" d="M8.167 38.782l.964.837 3.82-4.505a15.322 15.322 0 0 1-.838-.985l-3.946 4.653M12.811 41.924l.97.83 3.62-4.324c-.391-.192-.772-.4-1.143-.624l-3.447 4.118"/>
        <path fill="#EF4056" stroke="#EF4056" stroke-width=".5" d="M25.726 32.46c1.789-.832 2.788-1.883 2.969-3.124a2.85 2.85 0 0 0-.123-1.281c.207-.005.427-.023.667-.065 2.286-.398 3.497-2.86 3.657-4.98.097-1.344.484-2.557 1.12-3.588a11.5 11.5 0 0 0-.72-1.22c-.968 1.321-1.539 2.924-1.668 4.713-.123 1.637-.99 3.527-2.604 3.808-1.39.238-1.699-.368-2.21-1.376-.352-.695-.751-1.482-1.603-1.915-.63-.32-1.328-.283-1.946-.25-1.077.057-1.569.042-1.908-.905-.396-1.105-.595-2.674.705-3.872.61-.565 1.46-.9 2.457-.97 2.319-.162 4.336-.918 5.88-2.183a11.13 11.13 0 0 0-1.163-.718c-1.291.929-2.93 1.487-4.804 1.618-1.287.09-2.403.541-3.227 1.303-1.29 1.19-1.71 2.842-1.215 4.698a2.664 2.664 0 0 0-1.432.095c-1.22.448-2.098 1.788-2.687 4.099-.075.292-.147.589-.22.89-.313 1.278-.637 2.581-1.139 3.675.26.4.543.782.849 1.146.74-1.33 1.14-2.94 1.523-4.512.073-.297.145-.59.218-.878.463-1.817 1.116-2.927 1.89-3.21.578-.213 1.325.01 2.222.663.689.42 1.502.377 2.117.344.504-.026.98-.051 1.31.116.48.244.74.758 1.042 1.353.233.459.504.993.934 1.41.225.201.948.927.82 1.805-.112.772-.887 1.513-2.24 2.142l-.267.123c-1.835.851-4.5 2.088-6.08 3.435.427.22.869.415 1.326.58 1.492-1.087 3.79-2.154 5.284-2.846l.266-.124"/>
        <path fill="#3CB4E7" d="M40.91 11.541l-4.802 4.008c.255.348.493.705.716 1.069l4.914-4.101-.81-.992-.019.016M33.287 12.617l4.72-4.359.004-.004-.857-.95-4.92 4.544c.362.24.712.497 1.053.769"/>
        <path fill="#3CB4E7" stroke="#3CB4E7" stroke-width=".5" d="M36.306 22.198l1.247-.249c-.085-.435-.19-.87-.315-1.293l-1.219.367c.114.384.21.78.287 1.175M33.073 33.426l.92.888c.301-.32.591-.659.862-1.007l-1-.795c-.245.316-.508.624-.782.914M35.644 29.378l1.18.477c.163-.41.307-.834.43-1.26l-1.22-.36a12.69 12.69 0 0 1-.39 1.143M36.483 25.86c-.038.401-.095.804-.17 1.198l1.25.242c.081-.434.144-.877.185-1.32l.005-.05-1.265-.12-.005.05M36.54 24.602l1.271-.004a14.18 14.18 0 0 0-.066-1.33l-1.265.125c.039.4.059.807.06 1.21M34.55 31.526l1.07.696c.236-.372.457-.76.658-1.154l-1.13-.59c-.182.358-.383.71-.598 1.048M13.397 31.551c-.216-.338-.418-.69-.6-1.046l-1.129.593c.202.391.424.779.662 1.15l1.067-.697M11.903 28.264l-1.219.365c.124.423.27.846.434 1.258l1.179-.481c-.15-.374-.282-.758-.394-1.142M14.058 16.817l-1-.793c-.27.349-.526.714-.763 1.087l1.071.693c.214-.338.447-.67.692-.987M19.454 37.9c.412.144.838.27 1.265.373l.296-1.25a12.3 12.3 0 0 1-1.147-.338l-.414 1.215M15.745 34.283l-.831.972c.33.29.68.567 1.036.823l.736-1.047c-.324-.234-.64-.485-.94-.748M22.191 37.248l-.18 1.273a13.415 13.415 0 0 0 1.312.125l.06-1.284a12.161 12.161 0 0 1-1.192-.114M12.77 18.853l-1.131-.586c-.2.394-.383.803-.544 1.213l1.18.475c.147-.373.313-.744.495-1.102M11.444 23.474l-1.265-.12c-.04.437-.061.88-.061 1.317v.014l1.27-.014c0-.397.02-.8.056-1.197M27.184 11.032a13.96 13.96 0 0 0-1.293-.247l-.177 1.274c.394.056.79.13 1.176.224l.294-1.251M29.675 11.892c-.398-.182-.81-.347-1.225-.49l-.41 1.216c.376.13.75.28 1.11.445l.525-1.17M11.447 25.892l-1.265.123c.042.44.106.884.19 1.32l1.247-.246a12.84 12.84 0 0 1-.172-1.197M36.801 19.398a14.2 14.2 0 0 0-.552-1.209l-1.127.595c.183.355.352.724.502 1.098l1.177-.484M29.2 36.223l.53 1.169c.397-.184.79-.39 1.17-.613l-.638-1.112c-.344.201-.702.389-1.062.556M15.704 15.064l-.835-.97c-.33.291-.649.601-.95.922l.921.886c.274-.292.565-.574.864-.838M31.266 35.011l.74 1.046c.357-.259.705-.536 1.034-.824l-.833-.971c-.299.262-.615.514-.94.75M17.646 13.656l-.639-1.111c-.377.222-.749.465-1.105.724l.741 1.044c.323-.234.66-.455 1.003-.657M19.816 12.644l-.42-1.214c-.413.147-.824.315-1.22.5l.532 1.168c.36-.169.733-.321 1.108-.454M24.523 11.947l.057-1.284c-.444-.02-.883-.02-1.317.003l.063 1.284c.394-.02.793-.021 1.197-.003M22.136 12.067l-.184-1.272c-.432.063-.867.15-1.293.255l.303 1.249c.387-.096.782-.174 1.174-.232M24.579 37.361l.06 1.285c.439-.021.88-.064 1.312-.127l-.182-1.272c-.392.057-.792.095-1.19.115M11.889 21.099l-1.22-.359c-.122.425-.225.861-.307 1.296l1.249.24c.074-.396.167-.792.278-1.178M26.943 37.017l.301 1.25c.425-.105.85-.232 1.264-.378l-.418-1.214c-.375.132-.76.247-1.147.342M14.093 32.535l-.997.797c.27.346.56.684.864 1.005l.919-.888c-.276-.291-.54-.6-.786-.914M18.756 36.237c-.362-.167-.72-.352-1.063-.553l-.635 1.115c.379.22.773.425 1.172.609l.526-1.17M32.995 14.037l-.83.974c.302.263.594.543.87.833l.916-.89a14.06 14.06 0 0 0-.956-.917M33.82 16.756c.246.313.481.644.699.983l1.065-.7c-.239-.373-.497-.737-.767-1.082l-.996.799M31.223 14.266l.735-1.05c-.358-.255-.73-.497-1.11-.717l-.633 1.115c.345.2.684.42 1.008.652"/>
    </g>
</svg>
