<svg xmlns="http://www.w3.org/2000/svg" width="43" height="43" viewBox="0 0 43 43">
    <g fill="none" fill-rule="evenodd">
        <rect width="43" height="43" rx="8"/>
        <g fill="#9B9B9B">
            <path d="M25.67 23.855c-.608.754-1.238 1.534-1.493 2.203a9.836 9.836 0 0 0-.42 1.402h-3.521a9.841 9.841 0 0 0-.42-1.402c-.255-.669-.885-1.449-1.494-2.203-.137-.17-.27-.335-.392-.49a7.12 7.12 0 0 1-.564-.83c-.504-.91-.74-1.776-.74-2.707 0-2.962 2.409-5.371 5.37-5.371 2.962 0 5.371 2.41 5.371 5.37 0 .931-.236 1.797-.74 2.707a7.124 7.124 0 0 1-.564.83c-.121.156-.255.32-.392.491zm2.314-.215a9.446 9.446 0 0 0 .226-.401l.006-.013c.59-1.115.878-2.23.878-3.398a7.106 7.106 0 0 0-7.098-7.098 7.106 7.106 0 0 0-7.097 7.098c0 1.167.288 2.283.878 3.398.002.004.003.009.006.013a9.342 9.342 0 0 0 .226.401c.021.036.045.07.071.101.125.194.288.43.49.688.126.162.265.334.409.512.475.588 1.066 1.32 1.223 1.732.375.981.442 1.715.442 1.72l.064.794h5.78l.791-.003.069-.789c0-.007.068-.74.442-1.722.158-.412.749-1.144 1.224-1.733l.41-.511c.2-.258.364-.494.489-.688a.87.87 0 0 0 .07-.101zM21.133 30.169h-2.491v1.165c.001.192.036.854.412 1.303.338.402.886.53 1.272.57.015.144.06.367.2.531.22.264.624.293.786.293h1.368c.163 0 .566-.029.787-.292.138-.165.184-.387.2-.533.385-.038.934-.167 1.271-.57.377-.448.411-1.11.413-1.31V30.17h-4.218M21.987 11.266a.863.863 0 0 0 .863-.863v-2.54a.863.863 0 0 0-1.727 0v2.54c0 .476.387.863.864.863M14.6 13.819a.86.86 0 0 0 1.22 0 .864.864 0 0 0 0-1.221l-1.795-1.796a.863.863 0 0 0-1.22 1.221L14.6 13.82M13.266 19.983a.864.864 0 0 0-.863-.863h-2.54a.863.863 0 0 0 0 1.727h2.54a.863.863 0 0 0 .863-.864M14.598 26.149l-1.796 1.796a.863.863 0 0 0 1.221 1.22l1.796-1.795a.863.863 0 0 0-1.221-1.221M29.37 26.151a.863.863 0 1 0-1.22 1.221l1.795 1.796a.861.861 0 0 0 1.22 0 .863.863 0 0 0 0-1.221L29.37 26.15M34.107 19.123h-2.54a.863.863 0 0 0 0 1.727h2.54a.863.863 0 1 0 0-1.727M28.762 14.074a.86.86 0 0 0 .61-.253l1.796-1.796a.864.864 0 0 0-1.221-1.22L28.15 12.6a.863.863 0 0 0 .61 1.474"/>
        </g>
    </g>
</svg>
