<svg xmlns="http://www.w3.org/2000/svg" width="50" height="50" viewBox="0 0 50 50">
    <g fill="none" fill-rule="evenodd">
        <path d="M0 0h50v50H0z"/>
        <g stroke-width=".5">
            <path fill="#3CB4E7" stroke="#3CB4E7" d="M9.249 24.754c.626 4.12 2.951 7.86 6.494 10.287v7.868h1.3v-8.533l-.556-.38c-3.143-2.152-5.243-5.43-5.896-9.062-.65-.06-.995-.116-1.342-.18M42.31 30.16c.057.287.075.484.078.611-.03.002-.064.002-.101.002l-3.369.005-.069 1.201c-.17 2.97-.69 5.42-.993 5.915-.497.182-2.803.343-5.563.19l-1.371-.074v4.899h1.299v-3.552c.058.004 5.433.289 6.434-.446 1.132-.832 1.488-6.8 1.491-6.86l2.143-.003c.584-.001.94-.117 1.155-.374.27-.322.316-.88.14-1.758-.205-1.033-1.539-4.41-2.54-6.871-.398.113-.822.214-1.277.3 1.43 3.503 2.398 6.091 2.542 6.815M9.253 20.177c-.032.206-.057.414-.081.623.452.15.88.217 1.274.271.077-.74.215-1.46.406-2.162-.778.518-1.279.944-1.599 1.268M38.617 19.668c.509-.081.93-.173 1.27-.266a19.462 19.462 0 0 0-.536-1.968l-1.155.684c.17.509.31 1.026.421 1.55M12.567 12.88a15.391 15.391 0 0 0-1.228 1.7c.308.2.676.418 1.116.652a14.12 14.12 0 0 1 2.056-2.572c-.753.053-1.397.13-1.944.22"/>
            <path fill="#EF4056" stroke="#EF4056" d="M41.317 15.833c-.304.293-.645.587-1.025.881 1.627 1.008 2.313 1.903 2.21 2.48-.089.49-.792 1.058-2.4 1.472-.374.096-.8.182-1.275.259-.448.072-.937.135-1.48.184-.926.085-1.925.126-2.983.126-.858 0-1.757-.03-2.683-.085a61.64 61.64 0 0 1-2.963 1.029c1.988.217 3.897.33 5.652.33 1.097 0 2.135-.043 3.096-.13a21.9 21.9 0 0 0 1.807-.238c.46-.08.892-.173 1.285-.28 1.926-.523 3.026-1.35 3.223-2.445.238-1.325-.875-2.545-2.464-3.583"/>
            <path fill="#3CB4E7" stroke="#3CB4E7" d="M35.927 11.98c-.214-.007-.437-.011-.677-.011-.375 0-.767.009-1.174.026.922.796 1.747 1.73 2.397 2.677.325-.2.66-.41 1.078-.712a15.62 15.62 0 0 0-1.624-1.98"/>
            <path fill="#EF4056" stroke="#EF4056" d="M15.649 10.051c-2.98.09-7.783.62-8.224 3.075-.159.883.312 1.767 1.243 2.62.31.285.722.598 1.068.834-1.665 1.064-4.08 2.935-3.556 4.806.274.979 1.257 1.662 2.92 2.036 1.118.252 2.442.332 3.59.332 2.778 0 6.244-.433 9.893-1.242a65.593 65.593 0 0 0 7.455-2.122c.49-.172.97-.35 1.441-.529 2.899-1.106 7.699-3.244 9.602-5.66.67-.851.908-1.657.697-2.409-.537-1.918-3.697-2.37-6.553-2.37-.85 0-1.666.042-2.385.094-.296-.18-.601-.346-.911-.507a15.784 15.784 0 0 0-2.108-.91 15.797 15.797 0 0 0-5.175-.867 15.711 15.711 0 0 0-8.148 2.264c-.29.176-.572.362-.85.555zm1.527.532a14.394 14.394 0 0 1 7.47-2.077c1.621 0 3.217.268 4.743.795a14.492 14.492 0 0 1 2.667 1.241c.151.09.298.187.445.282 3.03-.287 7.615-.154 8.024 1.306.09.322-.07.821-.617 1.457-.87 1.012-2.362 1.967-3.537 2.629-2.137 1.203-4.88 2.366-7.925 3.366a63.72 63.72 0 0 1-1.44.455c-.481.146-.97.286-1.463.422-.149.042-.296.084-.446.124a65.062 65.062 0 0 1-4.045.95c-.509.103-1.011.197-1.507.283-2.52.437-4.863.668-6.828.668-1.142 0-2.528-.082-3.634-.382-.937-.254-1.53-.624-1.65-1.053-.347-1.238 2.42-3.056 3.531-3.723.463.254.95.495 1.36.686 2.044.95 4.564 1.804 7.256 2.501a59.487 59.487 0 0 0 2.969-.608c-3.754-.787-9.866-2.502-12.756-4.864-.794-.648-1.171-1.236-1.089-1.694.142-.788 1.825-1.618 5.238-1.92 1.028-.09 1.746-.1 2.155-.115.145-.107.29-.216.44-.317.209-.142.421-.28.639-.412z"/>
        </g>
    </g>
</svg>
