<svg xmlns="http://www.w3.org/2000/svg" width="50" height="50" viewBox="0 0 50 50">
    <g fill="none" fill-rule="evenodd">
        <path d="M0 0h50v50H0z"/>
        <path fill="#3CB4E7" stroke="#3CB4E7" stroke-width=".5" d="M14.825 34.94v7.868h1.3v-8.533l-.556-.38c-3.83-2.623-6.117-6.917-6.117-11.487 0-7.72 6.405-14.002 14.277-14.002 1.622 0 3.218.267 4.744.794 3.956 1.367 7.086 4.354 8.589 8.196.434 1.111.722 2.273.855 3.454l.02.176.069.164c1.888 4.529 3.219 8.01 3.39 8.87.057.287.076.483.08.61a2.39 2.39 0 0 1-.102.003l-3.349.004-.205 2.208h1.305l.087-.935 2.164-.003c.584-.001.94-.117 1.155-.374.27-.322.315-.88.14-1.758-.284-1.427-2.722-7.331-3.462-9.106a14.961 14.961 0 0 0-.934-3.769c-1.64-4.192-5.055-7.45-9.37-8.942a15.81 15.81 0 0 0-5.176-.867c-8.589 0-15.577 6.853-15.577 15.277 0 4.986 2.495 9.67 6.673 12.532M37.34 36.49c-.191.862-.345 1.2-.402 1.304-.506.183-2.808.341-5.56.19l-1.371-.075v4.899h1.299v-3.551c.058.003 5.434.288 6.435-.447.173-.127.53-.392.928-2.32H37.34"/>
        <path fill="#EF4056" stroke="#EF4056" stroke-width=".5" d="M38.448 34.059h-8.06a.637.637 0 1 0 0 1.274h8.06c2.444 0 4.432 1.95 4.432 4.347h1.3c0-3.1-2.572-5.621-5.732-5.621z"/>
        <path fill="#EF4056" d="M43.781 42.562l2.081-2.941a.4.4 0 0 0-.326-.631h-4.162a.4.4 0 0 0-.327.63l2.081 2.942a.4.4 0 0 0 .653 0z"/>
    </g>
</svg>
