<svg xmlns="http://www.w3.org/2000/svg" width="50" height="50" viewBox="0 0 50 50">
    <g fill="none" fill-rule="evenodd">
        <path d="M0 0h50v50H0z"/>
        <path fill="#3CB4E7" stroke="#3CB4E7" d="M33.89 10.267a9.752 9.752 0 0 0-5.877-5.713A9.75 9.75 0 0 0 24.768 4C19.382 4 15 8.378 15 13.76a9.773 9.773 0 0 0 4.184 8.007v6.975a2 2 0 0 1-.103.634l-2.794 8.352a2 2 0 0 0-.103.634v8.024a.407.407 0 0 0 .815 0V38.26a2 2 0 0 1 .105-.642l2.79-8.238a2 2 0 0 0 .105-.642v-7.396l-.349-.243a8.958 8.958 0 0 1-3.835-7.339c0-4.933 4.016-8.946 8.953-8.946 1.017 0 2.018.17 2.975.508a8.939 8.939 0 0 1 5.922 7.443l.055.217c1.184 2.893 2.02 5.117 2.126 5.667.036.183.048.309.05.39l-2.176.004-.044.768c-.107 1.897-.432 3.462-.623 3.778-.312.117-1.759.22-3.489.123l-.86-.049v5.182a2 2 0 0 0 .05.44l1.901 8.428a2 2 0 0 1 .05.44v8.233a.407.407 0 1 0 .814 0v-8.233a2 2 0 0 0-.05-.44l-1.901-8.428a2 2 0 0 1-.049-.44v-4.32c.036.002 3.408.184 4.036-.286.71-.531.933-4.344.935-4.382l1.344-.002c.366-.001.59-.075.724-.24.17-.205.198-.562.088-1.123-.178-.911-1.707-4.683-2.171-5.818a9.707 9.707 0 0 0-.586-2.407z"/>
        <path stroke="#EF4056" stroke-dasharray="3,3" stroke-linecap="round" stroke-linejoin="round" stroke-width="2" d="M21 46v-8.057l3-8.273V23"/>
    </g>
</svg>
