<?xml version="1.0" encoding="UTF-8" standalone="no"?>
<svg width="8px" height="12px" viewBox="0 0 8 12" version="1.1" xmlns="http://www.w3.org/2000/svg" xmlns:xlink="http://www.w3.org/1999/xlink">
    <!-- Generator: Sketch 45.2 (43514) - http://www.bohemiancoding.com/sketch -->
    <title>ico-voltar-slide</title>
    <desc>Created with Sketch.</desc>
    <defs>
        <path d="M40.175,27 C39.9541623,27.0014532 39.7414492,26.9167984 39.582,26.764 L35.234,22.544 C35.0842585,22.4026846 34.9993887,22.2058945 34.9993887,22 C34.9993887,21.7941055 35.0842585,21.5973154 35.234,21.456 L39.582,17.236 C39.9074348,16.926517 40.4162099,16.9195475 40.75,17.22 C40.9058274,17.3597305 40.9961778,17.5582191 40.9992163,17.7674978 C41.0022548,17.9767764 40.9177051,18.1778045 40.766,18.322 L36.944,22 L40.766,25.677 C40.9177051,25.8211955 41.0022548,26.0222236 40.9992163,26.2315022 C40.9961778,26.4407809 40.9058274,26.6392695 40.75,26.779 C40.5928644,26.9222239 40.387611,27.0011126 40.175,27 L40.175,27 Z" id="path-1"></path>
    </defs>
    <g id="Page-1" stroke="none" stroke-width="1" fill="none" fill-rule="evenodd">
        <g id="seta-back-barra" transform="translate(-34.000000, -16.000000)" fill-rule="nonzero">
            <g id="ico-voltar-slide">
                <use fill="#DADADA" fill-rule="evenodd" xlink:href="#path-1"></use>
                <path stroke="#FFFFFF" stroke-width="1" d="M37.6651321,21.9999516 L41.1104698,25.3145906 C41.3633116,25.5549165 41.5042278,25.8899633 41.4991636,26.238761 C41.4940994,26.5875587 41.3435155,26.9183732 41.0868168,27.1485327 C40.8369212,27.3763043 40.5105028,27.5017625 40.1723835,27.4999932 L40.1782901,27.4999892 C39.8273949,27.5022982 39.489409,27.3677878 39.2337673,27.1227952 L34.8908257,22.9076364 C34.6409896,22.6718588 34.4993887,22.3435246 34.4993887,22 C34.4993887,21.6564754 34.6409896,21.3281412 34.8857673,21.0972048 L39.2374381,16.8736782 C39.7520792,16.3842632 40.5566538,16.3732417 41.0838031,16.8477427 C41.3435155,17.0806268 41.4940994,17.4114413 41.4991636,17.760239 C41.5042278,18.1090367 41.3633116,18.4440835 41.1127013,18.6822752 L37.6651321,21.9999516 Z"></path>
            </g>
        </g>
    </g>
</svg>