<svg xmlns="http://www.w3.org/2000/svg" width="50" height="50" viewBox="0 0 50 50">
    <g fill="none" fill-rule="evenodd">
        <path d="M0 0h50v50H0z"/>
        <g stroke-width=".3">
            <path fill="#3CB4E7" stroke="#3CB4E7" d="M20 10c0 2.757 2.243 5 5 5s5-2.243 5-5-2.243-5-5-5-5 2.243-5 5zm8.182 0A3.185 3.185 0 0 1 25 13.182 3.186 3.186 0 0 1 21.818 10 3.185 3.185 0 0 1 25 6.818 3.185 3.185 0 0 1 28.182 10z"/>
            <path fill="#EF4056" stroke="#EF4056" d="M20.184 18.713h9.605c1.993 0 3.615 1.668 3.615 3.72v11.783h1.569V22.432c0-2.94-2.326-5.333-5.184-5.333h-9.605c-2.859 0-5.184 2.392-5.184 5.333v11.784h1.569V22.432c0-2.05 1.622-3.72 3.615-3.72z"/>
            <path fill="#EF4056" stroke="#EF4056" d="M21.472 30.41v-3.605h-1.568v17.798h1.568v-12.58h7.029v12.58h1.568V26.805h-1.568v3.605z"/>
        </g>
    </g>
</svg>
