<svg xmlns="http://www.w3.org/2000/svg" width="50" height="50" viewBox="0 0 50 50">
    <g fill="none" fill-rule="evenodd">
        <path d="M0 0h50v50H0z"/>
        <path fill="#3CB4E7" stroke="#3CB4E7" stroke-width=".5" d="M38.337 16.94c-1.59-4.192-4.9-7.45-9.081-8.942a14.896 14.896 0 0 0-5.015-.867c-8.325 0-15.097 6.853-15.097 15.277 0 4.986 2.418 9.67 6.466 12.532v7.868h1.26v-8.533l-.539-.38a14.075 14.075 0 0 1-5.928-11.487c0-7.72 6.208-14.002 13.838-14.002 1.57 0 3.117.267 4.596.794 3.834 1.367 6.867 4.354 8.324 8.196.42 1.111.7 2.273.829 3.454l.02.176.066.164c1.83 4.529 3.12 8.01 3.285 8.87.056.287.074.483.077.61-.02.001-1.14.004-3.364.007l-.067 1.201c-.165 2.97-.668 5.42-.962 5.915-.483.183-2.718.343-5.392.191l-1.33-.075v4.899h1.26v-3.551c.056.003 5.266.288 6.236-.447 1.098-.832 1.442-6.8 1.446-6.86l2.077-.003c.565-.001.91-.117 1.12-.374.262-.322.305-.88.135-1.758-.275-1.427-2.638-7.331-3.355-9.106a15.354 15.354 0 0 0-.905-3.769z"/>
        <path fill="#EF4056" d="M23.597 14.327c-1.394 0-2.875 1.044-2.875 2.978v9.387a4.467 4.467 0 0 0-1.5 3.336c0 2.44 1.963 4.426 4.375 4.426 2.411 0 4.374-1.985 4.374-4.426a4.467 4.467 0 0 0-1.5-3.336v-9.387c0-1.934-1.48-2.978-2.874-2.978zm0 18.853c-1.718 0-3.115-1.414-3.115-3.152a3.13 3.13 0 0 1 1.247-2.521l.253-.192v-10.01c0-1.25.966-1.703 1.615-1.703s1.614.453 1.614 1.703v10.01l.253.192a3.13 3.13 0 0 1 1.247 2.52c0 1.74-1.397 3.153-3.114 3.153zM31.824 29.055V21.54l1.399 1.415.89-.9-2.919-2.954-2.919 2.953.89.901 1.4-1.415v7.515h1.259"/>
        <path fill="#EF4056" d="M24.059 28.77v-7.323h-.935v7.323h-.157c-.455.235-.77.707-.77 1.258 0 .78.628 1.416 1.4 1.416a1.41 1.41 0 0 0 1.399-1.416c0-.55-.315-1.023-.77-1.258h-.167z"/>
    </g>
</svg>
