<svg xmlns="http://www.w3.org/2000/svg" xmlns:xlink="http://www.w3.org/1999/xlink" width="164" height="165" viewBox="0 0 164 165">
    <defs>
        <path id="a" d="M0 0h163.2v165.006H0z"/>
        <linearGradient id="c" x1="63.488%" y1="50%" y2="50%">
            <stop offset="0%" stop-opacity=".064"/>
            <stop offset="100%" stop-opacity="0"/>
        </linearGradient>
        <linearGradient id="d" x1="50%" x2="90.346%" y1="50%" y2="50%">
            <stop offset="0%" stop-opacity=".064"/>
            <stop offset="100%" stop-opacity="0"/>
        </linearGradient>
        <linearGradient id="e" x1="50%" x2="90.346%" y1="50%" y2="50%">
            <stop offset="0%" stop-opacity=".064"/>
            <stop offset="100%" stop-opacity="0"/>
        </linearGradient>
        <filter id="f" width="152.1%" height="142.2%" x="-26.1%" y="-21.1%" filterUnits="objectBoundingBox">
            <feOffset dy="2" in="SourceAlpha" result="shadowOffsetOuter1"/>
            <feGaussianBlur in="shadowOffsetOuter1" result="shadowBlurOuter1" stdDeviation="8.5"/>
            <feColorMatrix in="shadowBlurOuter1" result="shadowMatrixOuter1" values="0 0 0 0 0 0 0 0 0 0 0 0 0 0 0 0 0 0 0.172695879 0"/>
            <feMerge>
                <feMergeNode in="shadowMatrixOuter1"/>
                <feMergeNode in="SourceGraphic"/>
            </feMerge>
        </filter>
    </defs>
    <g fill="none" fill-rule="evenodd" transform="translate(0 -.805)">
        <mask id="b" fill="#fff">
            <use xlink:href="#a"/>
        </mask>
        <g mask="url(#b)">
            <path fill="url(#c)" d="M20.4 84.693h134.4v32.667H20.4z" transform="translate(8.4 39.982)"/>
            <path fill="url(#d)" d="M108 55.655h62.4v29.037H108z" transform="translate(8.4 39.982)"/>
            <path fill="url(#e)" d="M168 44.766h-62.4v15.728H31.2V0H168v44.766z" transform="translate(8.4 39.982)"/>
            <path fill="#EF4056" d="M56.308 39.982H39.692c-2.296 0-4.155 1.805-4.155 4.028v14.138H20.955c-2.293 0-4.155 1.802-4.155 4.025v16.11c0 2.226 1.862 4.028 4.154 4.028h14.583v14.138c0 2.226 1.862 4.028 4.155 4.028h16.616c2.293 0 4.155-1.802 4.155-4.028V82.31h14.583c2.292 0 4.154-1.802 4.154-4.028v-16.11c0-2.223-1.862-4.025-4.155-4.025H60.463V44.01c0-2.223-1.859-4.028-4.155-4.028zM127.846 95.637h8.308c1.146 0 2.077.901 2.077 2.014v7.07h7.292c1.146 0 2.077.902 2.077 2.013v8.053c0 1.112-.931 2.014-2.077 2.014h-7.292v7.07c0 1.113-.93 2.014-2.077 2.014h-8.308c-.33 0-.642-.075-.919-.207a2.01 2.01 0 0 1-1.158-1.807v-7.07h-7.292c-1.146 0-2.077-.9-2.077-2.014v-8.053c0-1.113.93-2.014 2.077-2.014h7.292v-7.069c0-1.113.93-2.014 2.077-2.014zM8.4 143.825v-8.053c0-1.113.93-2.014 2.077-2.014h7.292v-7.07c0-1.112.93-2.013 2.077-2.013h8.308c1.146 0 2.077.9 2.077 2.014v7.069h7.292c1.146 0 2.077.902 2.077 2.014v8.053c0 1.111-.931 2.014-2.077 2.014H30.23v7.069c0 1.113-.93 2.014-2.077 2.014h-8.308a2.12 2.12 0 0 1-.988-.242 2.006 2.006 0 0 1-1.09-1.772v-7.07h-7.29c-1.147 0-2.078-.9-2.078-2.013z"/>
        </g>
        <g filter="url(#f)" mask="url(#b)">
            <path fill="#EC9A99" d="M7.723 166.98L.02 174.676l3.637 3.678a8.392 8.392 0 0 0 11.91.036l5.399-5.393-5.93-5.994a5.152 5.152 0 0 0-7.312-.023"/>
            <path fill="#70C1E1" d="M11.752 164.9l11.112 11.52 4.793-5.597-11.112-11.519-4.793 5.596"/>
            <path fill="#FFFFFE" d="M42.94 124.997L16.15 159.32l11.75 12.623 31.992-38.325S70.65 88.892 73.39 76.353l-22.196 2.79-8.253 45.854"/>
            <path fill="#FFFFFE" d="M95.957 69.627H71.79l-20.157 9.568.4 106.808h63.982l.877-106.808-20.934-9.568"/>
            <path fill="#D3DFEA" d="M95.595 69.95l-1.36.759 9.918 17.932-15.29 7.865 12.626 5.021-27.902 23.574-13.563-26.413 9.568-2.748-10.337-6.61 15.003-21.612-1.277-.894-15.93 22.948 8.787 5.62-8.067 2.316 15.326 29.85 31.39-26.52-11.856-4.714 13.664-7.03-10.7-19.344"/>
            <path fill="#D3DFEA" d="M73.947 126.881l-.988-1.206-6.324 5.231.222 55.266h1.555l-.22-54.531 5.755-4.76"/>
            <path fill="#3CB4E7" d="M81.005 70.307l-10.7.08 3.487 54.1 23.022-54.3-15.292.12h-.517"/>
            <path fill="#37414E" d="M73.743 77.88l6.111 6.87 8.036-6.562-6.337-8.561-7.81 8.253"/>
            <path fill="#37414E" d="M77.348 82.038l-4.412 24.803 1.123 17.464 7.86-18.533 1.51-31.703-4.57-.519-1.511 8.488"/>
            <path fill="#EC9A99" d="M70.23 69.096s3.49 4.162 13.292 4.162c9.801 0 13.292-4.162 13.292-4.162V42.163H70.23v26.933"/>
            <path fill="#CC6A68" d="M70.394 69.002c18.076-1.226 21.958-12.266 21.958-12.266H70.394v12.266"/>
            <path fill="#274D7C" d="M69.1 66.252L60.26 93.821c-1.857 5.816.36 11.996 5.065 15.376v-.01a4.158 4.158 0 0 1 1.32-1.94 11.41 11.41 0 0 1-4.146-12.7L70.6 69.277v-4.135h-1.06c-.156.365-.319.725-.44 1.11"/>
            <path fill="#274D7C" d="M65.008 109.118v.01a13.363 13.363 0 0 0 3.755 1.908l.723-2.25a11.073 11.073 0 0 1-3.158-1.607 4.154 4.154 0 0 0-1.32 1.939"/>
            <path fill="#969B9F" d="M70.527 106.82a4.09 4.09 0 0 0-3.869.735 4.154 4.154 0 0 0-1.32 1.939v.01a4.138 4.138 0 0 0 2.661 5.205 4.129 4.129 0 0 0 5.19-2.675 4.149 4.149 0 0 0-2.662-5.215"/>
            <path fill="#463336" d="M67.789 29.305V39.77h16.755V21.425H75.63c-4.33 0-7.841 3.528-7.841 7.88"/>
            <path fill="#CC6A68" d="M65.468 41.157v7.185a3.468 3.468 0 0 0 3.46 3.477v-14.14a3.468 3.468 0 0 0-3.46 3.478"/>
            <path fill="#EC9A99" d="M90.257 23.667h-10.09c-10.518 0-12.588 8.816-12.565 14.84v26.185c17.622 6.149 28.096-6.716 28.096-6.716v-28.17c0-3.39-2.436-6.139-5.441-6.139"/>
            <path fill="#463336" d="M95.989 19.183c-3.496 0-6.33 2.849-6.33 6.362v19.521h14.405V27.299c0-4.482-3.616-8.116-8.075-8.116"/>
            <path fill="#EC9A99" d="M100.046 37.68a3.509 3.509 0 0 0-3.5 3.516V51.82h3.5c1.911 0 3.46-1.557 3.46-3.477v-7.185c0-1.92-1.549-3.478-3.46-3.478"/>
            <path fill="#CC6A68" d="M74.89 45.69l-1.46-.164-.536 4.846h3.284v-1.478h-1.642l.355-3.205"/>
            <path fill="#FFFFFE" d="M72.579 59.612s8.494 1.618 13.08-5.118H72.58v5.118"/>
            <path fill="#EC9A99" d="M86.644 31.514v15.755h6.823v-8.897c0-3.788-3.054-6.858-6.823-6.858"/>
            <path fill="#463336" d="M88.653 14.14H67.447v4.602c0 5.562 4.487 10.071 10.02 10.071h21.02v-4.79c0-5.459-4.403-9.884-9.834-9.884"/>
            <path fill="#37414E" d="M84.355 126.796l-23.826 34.14 35.933 25.325h18.23l17.815-25.526-48.152-33.939"/>
            <path fill="#70C1E1" d="M98.722 170.893l13.492 8.578 4.12-6.545-13.492-8.578-4.12 6.545"/>
            <path fill="#FFFFFE" d="M111.294 115.111l9.114 19.549-17.818 29.781 13.866 10.07 22.744-36.83s-15.817-47.806-22.845-58.526l-5.06 35.956"/>
            <path fill="#D3DFEA" d="M112.61 84.76l-6.505 22.246 6.561 12.69 1.381-.72-6.273-12.132 6.329-21.643-1.493-.441M121.655 135.067l11.174 1.728.236-1.545-11.173-1.728-.237 1.545"/>
            <path fill="#D3DFEA" d="M121.238 133.101l.653 1.42 11.174-5.185-.652-1.419-11.175 5.184M120.233 128.052l.68 1.407 6.017-2.937-.679-1.407-6.018 2.937"/>
            <path fill="#969B9F" d="M110.644 84.426l-3.623-.21c-5.602-.323-10.422 3.994-10.743 9.624l-1.003 17.54c-.35 6.108 2.87 10.41 8.012 10.708l.09-1.571c-5.192-.3-6.768-5.06-6.54-9.047l1.003-17.54c.273-4.763 4.351-8.416 9.092-8.143l3.622.21c4.741.274 8.376 4.372 8.103 9.136l-1.002 17.54c-.228 3.986-2.337 8.534-7.529 8.234l-.09 1.57c5.143.298 8.832-3.606 9.181-9.714l1.004-17.54c.322-5.63-3.975-10.474-9.577-10.797"/>
            <path fill="#274D7C" d="M110.833 83.633l-.103-.006.553-9.675c.385-6.732-7.101-13.572-14.332-14.414v2.3c5.675.614 12.306 6.404 11.988 11.978l-.554 9.676-1.175-.068c-5.818-.336-10.823 4.147-11.157 9.994l-.6 10.471 2.345.136.6-10.472c.26-4.547 4.153-8.034 8.677-7.772l3.623.209c4.525.26 7.995 4.173 7.735 8.72l-.599 10.472 2.345.135.599-10.471c.334-5.847-4.127-10.877-9.945-11.213M102.864 119.512a1.275 1.275 0 0 0-1.343 1.203 1.277 1.277 0 0 0 1.198 1.35 1.275 1.275 0 0 0 1.343-1.203 1.277 1.277 0 0 0-1.198-1.35M110.672 120.072a1.275 1.275 0 0 0-1.343 1.203c-.04.705.496 1.31 1.198 1.35a1.274 1.274 0 0 0 1.343-1.203 1.277 1.277 0 0 0-1.198-1.35"/>
        </g>
    </g>
</svg>
