<svg xmlns="http://www.w3.org/2000/svg" xmlns:xlink="http://www.w3.org/1999/xlink" width="164" height="165" viewBox="0 0 164 165">
    <defs>
        <path id="a" d="M0 0h163.2v165.006H0z"/>
        <linearGradient id="b" x1="68.517%" y1="50%" y2="50%">
            <stop offset="0%" stop-opacity=".064"/>
            <stop offset="100%" stop-opacity="0"/>
        </linearGradient>
        <linearGradient id="d" x1="73.765%" y1="50%" y2="50%">
            <stop offset="0%" stop-opacity=".064"/>
            <stop offset="100%" stop-opacity="0"/>
        </linearGradient>
        <filter id="e" width="159.7%" height="149.7%" x="-29.9%" y="-24.8%" filterUnits="objectBoundingBox">
            <feOffset dy="4" in="SourceAlpha" result="shadowOffsetOuter1"/>
            <feGaussianBlur in="shadowOffsetOuter1" result="shadowBlurOuter1" stdDeviation="9"/>
            <feColorMatrix in="shadowBlurOuter1" result="shadowMatrixOuter1" values="0 0 0 0 0 0 0 0 0 0 0 0 0 0 0 0 0 0 0.172695879 0"/>
            <feMerge>
                <feMergeNode in="shadowMatrixOuter1"/>
                <feMergeNode in="SourceGraphic"/>
            </feMerge>
        </filter>
    </defs>
    <g fill="none" fill-rule="evenodd" transform="translate(0 -.805)">
        <mask id="c" fill="#fff">
            <use xlink:href="#a"/>
        </mask>
        <path fill="url(#b)" d="M13.2 124.675h150v32.667H20.01z" mask="url(#c)"/>
        <path fill="url(#d)" d="M21.6 91.361h141.6v17.708H25.338z" mask="url(#c)"/>
        <g filter="url(#e)" mask="url(#c)">
            <path fill="#3B2D2E" d="M86.005 13.806c10.177 0 18.427 8.289 18.427 18.514v86.398H67.578V32.32c0-10.225 8.25-18.514 18.427-18.514"/>
            <path fill="#3B2D2E" d="M125.377 57.005c0 14.994-12.098 27.15-27.022 27.15V44.687h27.022v12.317"/>
            <path fill="#FFFFFE" d="M79.9 104.882l-23.945 41.98-14.083-5.624 26.29-46.908 11.739 10.552"/>
            <path fill="#A46C72" d="M17.244 98.576l8.933 16.012-4.586 3.035c-19.533-6.817-4.347-19.047-4.347-19.047"/>
            <path fill="#CFCFCF" d="M18.134 129.998l-6.303 1.112a.803.803 0 0 1-.927-.654l-.56-3.17a2.41 2.41 0 0 1 1.945-2.796l3.151-.555a2.41 2.41 0 0 1 2.783 1.961l.56 3.17a.803.803 0 0 1-.649.932z"/>
            <path fill="#3CB4E7" d="M17.145 157.167a1.627 1.627 0 0 0-.174.163c-.315.32-.79.802-1.963 1.009-1.973.348-3.436-1.057-3.71-2.615l-1.119-6.342c-.175-.994-.09-2.53.196-3.497l.107-.363c.185-.626.04-1.702-.302-2.258l-.585-.947c-.52-.843-1.061-2.265-1.233-3.24l-.14-.792c-.182-1.032.027-2.58.475-3.524l2.272-4.791a.797.797 0 0 1 1.067-.379c.399.192 5.077-.633 5.387-.95a.797.797 0 0 1 1.131-.009l3.774 3.726c.744.734 1.47 2.116 1.651 3.148l.14.793c.172.974.15 2.496-.05 3.465l-.226 1.091c-.132.64.1 1.7.488 2.225l.225.305c.599.81 1.205 2.225 1.38 3.219l1.118 6.341c.275 1.559-.62 3.379-2.592 3.727-1.173.207-1.785-.084-2.19-.276a1.786 1.786 0 0 0-.22-.095c-.327.564-.87.95-2.315 1.204-1.478.26-2.116.072-2.592-.338z"/>
            <path fill="#1F87B4" d="M24.123 136.328l-.004-.029c.172.974.15 2.496-.05 3.465l-.226 1.091c-.132.64.1 1.7.488 2.225l.225.305c.32.433.642 1.04.9 1.661l-15.366 2.956c.014-.75.114-1.536.285-2.117l.107-.363c.185-.626.04-1.702-.302-2.258l-.585-.947c-.356-.578-.722-1.427-.973-2.218l.147.001 15.354-3.772z"/>
            <g transform="rotate(-8 637.976 -42.51)">
                <path fill="#58D238" d="M11.087 5.821a5.673 5.673 0 0 1-1.655-.27.565.565 0 0 1-.337-.283c-.454-.897-.407-1.867.134-2.732C10.193.996 12.555 0 15.247 0c.173 0 .337.079.443.212a.55.55 0 0 1 .106.476c-.831 3.406-2.416 5.133-4.71 5.133z"/>
                <path fill="#EF4056" d="M11.859 22.307c-1.158 0-1.865-.239-2.259-.445-.394.206-1.1.445-2.259.445-3.98 0-7.341-4.343-7.341-9.484 0-4.18 1.9-6.676 5.082-6.676 1.393 0 2.131.525 2.783.988.534.38.957.68 1.735.68.778 0 1.201-.3 1.736-.68.651-.464 1.39-.988 2.782-.988 3.182 0 5.082 2.496 5.082 6.676 0 5.14-3.362 9.484-7.341 9.484z"/>
                <ellipse cx="5.2" cy="10.464" fill="#F26577" rx="2" ry="1.61"/>
                <path fill="#58D238" d="M9.6 8.93a.561.561 0 0 1-.565-.557c0-3.23-.534-4.188-2.657-6.28a.552.552 0 0 1-.001-.788.57.57 0 0 1 .798-.001c2.317 2.281 2.99 3.485 2.99 7.07a.561.561 0 0 1-.565.557"/>
            </g>
            <path fill="#575E60" d="M89.711 49.522l-.352.216-1.697-2.8.354-.216 1.695 2.8"/>
            <path fill="#FFFFFE" d="M55.955 146.862c-5.856 3.617-14.41 3.71-18.225-2.198-8.594-13.316-16.14-27.04-16.14-27.04l4.587-3.036 29.778 32.274M68.163 94.33l23.715-10.72 20.149.951 17.322 5.214-3.972 39.658.529 57.024H67.578v-33.77l.585-58.357"/>
            <path fill="#D3DFEA" d="M79.696 104.5l9.141 21.796 25.146-19.28-8.135-6.373 9.611-2.195-13.124-19.142-20.267 18.091 5.09 2.473-7.462 4.63zm-.596-6.69l23.537-21.009 15.584 22.73-8.585 1.96 7.069 5.539-28.566 21.904L77.61 103.83l6.094-3.781L79.1 97.81z"/>
            <path fill="#3CB4E7" d="M111.934 84.558s-4.84 18.68-23.446 43.057c-5.882-22.003 3.39-44.005 3.39-44.005l20.056.948"/>
            <path fill="#A46C72" d="M91.89 62.927h20.044v21.63s-5.867 3.344-13.256 3.344c-7.39 0-6.788-3.343-6.788-3.343v-21.63"/>
            <path fill="#814751" d="M91.89 81.632V68.105h18.156S106.837 80.28 91.89 81.632"/>
            <path fill="#A46C72" d="M97.202 24.284h.67c9.865 0 17.868 8.287 17.868 18.503v11.502h-3.808v15.914s-12.508 11.054-24.286 5.543c-5.158-2.414-8.312-7.773-8.312-13.49v-19.47c0-3.34.854-6.473 2.355-9.171 3.073-5.572 8.873-9.331 15.513-9.331"/>
            <path fill="#3B2D2E" d="M103.593 20.454c13.942 0 21.784 10.922 21.784 21.138v10.476c-3.737.885-8.155.584-8.155.584s-6.284 2.1-10.904-4.133l.075-5.189c0-7.847-11.288 1.358-10.8-10.966l-13.783.056c2.923-6.98 7.84-11.966 21.783-11.966"/>
            <path fill="#A46C72" d="M112.836 47.411h.107a3.51 3.51 0 0 1 3.503 3.52v7.057a3.51 3.51 0 0 1-3.503 3.52h-3.65V50.972a3.552 3.552 0 0 1 3.543-3.56"/>
            <path fill="#814751" d="M84.171 54.898a3.07 3.07 0 0 0 3.058 3.073v1.67c-2.603 0-4.72-2.127-4.72-4.743v-.438h1.662v.438"/>
            <path fill="#A46C72" d="M91.89 107.168V84.934l20.044-.376-20.044 22.61"/>
            <path fill="#D3DFEA" d="M87.824 127.112l1.328 1.006-4.98 6.631v51.708h-1.663V134.19l5.315-7.078"/>
            <path fill="#FFFFFE" d="M142.308 158.546l-13.528 1.18-9.722-61.09 10.287-8.83s10.808 30.422 12.963 68.74l-7.299 16.055-11.775-3.641 6.11-12.414h12.964z"/>
            <path fill="#3B2D2E" d="M87.414 70.447V64.94h6.438s.896 5.508-6.438 5.508"/>
            <path fill="#D3DFEA" d="M108.535 128.805h11.295v-8.078h-11.295z"/>
            <path fill="#274D7C" d="M113.316 121.303h1.732v-2.479h-1.732z"/>
            <path fill="#D3DFEA" d="M128.578 89.484l1.533.644c-.05.122-5.11 12.35-5.834 19.475-.727 7.161.519 19.76.53 19.885l-1.653.168c-.053-.524-1.275-12.892-.53-20.222.748-7.368 5.74-19.44 5.954-19.95"/>
        </g>
    </g>
</svg>
