<svg xmlns="http://www.w3.org/2000/svg" xmlns:xlink="http://www.w3.org/1999/xlink" width="164" height="165" viewBox="0 0 164 165">
    <defs>
        <path id="a" d="M0 0h163.2v165.006H0z"/>
        <linearGradient id="c" x1="50%" x2="50%" y1="0%" y2="85.042%">
            <stop offset="0%" stop-opacity=".064"/>
            <stop offset="100%" stop-opacity="0"/>
        </linearGradient>
        <linearGradient id="d" x1="50%" x2="50%" y1="0%" y2="85.042%">
            <stop offset="0%" stop-opacity=".064"/>
            <stop offset="100%" stop-opacity="0"/>
        </linearGradient>
        <linearGradient id="e" x1="50%" x2="50%" y1="0%" y2="85.042%">
            <stop offset="0%" stop-opacity=".064"/>
            <stop offset="100%" stop-opacity="0"/>
        </linearGradient>
        <filter id="f" width="192.9%" height="148.4%" x="-46.5%" y="-24.2%" filterUnits="objectBoundingBox">
            <feOffset dy="4" in="SourceAlpha" result="shadowOffsetOuter1"/>
            <feGaussianBlur in="shadowOffsetOuter1" result="shadowBlurOuter1" stdDeviation="10"/>
            <feColorMatrix in="shadowBlurOuter1" result="shadowMatrixOuter1" values="0 0 0 0 0 0 0 0 0 0 0 0 0 0 0 0 0 0 0.172695879 0"/>
            <feMerge>
                <feMergeNode in="shadowMatrixOuter1"/>
                <feMergeNode in="SourceGraphic"/>
            </feMerge>
        </filter>
    </defs>
    <g fill="none" fill-rule="evenodd" transform="translate(0 -.805)">
        <mask id="b" fill="#fff">
            <use xlink:href="#a"/>
        </mask>
        <g mask="url(#b)">
            <path fill="url(#c)" d="M0 22.537h44.8v85.32H0z" transform="translate(31.2 57.148)"/>
            <path fill="url(#d)" d="M94.4 53.124h31.2v54.734H94.4z" transform="translate(31.2 57.148)"/>
            <path fill="#FFA239" d="M80.588 82.1c0 13.664-11.008 24.74-24.588 24.74-13.58 0-24.588-11.076-24.588-24.74 0-13.662 11.008-24.738 24.588-24.738 13.58 0 24.588 11.076 24.588 24.739"/>
            <path fill="#726F6E" d="M55.956 106.84h-.014.014m-.044 0h-.016.016m-.046 0h-.015.015m-.045 0c-.005-.002-.01-.002-.015-.002l.015.001m-.054 0h-.004.004m-.049-.001h-.01.01m-.044 0h-.015.015m-.045-.001h-.015.015m-.046-.001h-.013.013m-.053 0l-.004-.001h.004m-.05-.001h-.004.004m-.044 0l-.01-.001h.01m-.045-.001h-.012.012m-.047-.001h-.01.01m-.146-.005h-.005.005m-.045-.001h-.007.007m-.048-.002H55.1h.004m25.483-24.767v-.014.014m0-.044v-.016.016m0-.046v-.015.015m0-.046v-.014.014m-.001-.054v-.004.004m0-.049v-.011.011m0-.045l-.001-.014v.014m0-.044v-.016.016m0-.047c-.002-.004-.002-.01-.002-.013l.001.013m-.001-.054v-.003.003m0-.05l-.001-.004v.005m-.001-.045v-.01.01m-.001-.045v-.011.01m-.002-.047v-.008.008m-.003-.147v-.003.003m-.002-.045v-.006.006m-.002-.049v-.002.002"/>
            <path fill="#FF9013" d="M56 106.84H55.821c-.005-.002-.01-.002-.015-.002H55.66l-.03-.001h-.015l-.031-.001h-.053l-.004-.001-.046-.001h-.044l-.01-.001-.035-.001h-.012l-.035-.001h-.01a9.753 9.753 0 0 1-.136-.005h-.005l-.04-.001h-.007l-.041-.002H55.1c-7.728-.28-14.544-4.148-18.858-9.997a24.377 24.377 0 0 0 14.634 4.86c13.58 0 24.588-11.077 24.588-24.74 0-5.516-1.796-10.61-4.83-14.724a24.747 24.747 0 0 1 9.937 18.975v.002l.002.043v.006c0 .014 0 .028.002.042v.003l.003.139v.008l.002.037V81.533c.002.014.002.027.002.04v.054l.001.041.001.013v.077l.001.014v.034l.001.011V81.966l.001.03v.105c0 13.663-11.008 24.739-24.588 24.739"/>
            <path fill="#433F3D" d="M49.853 72.824a2.055 2.055 0 0 1-2.05 2.061 2.055 2.055 0 0 1-2.048-2.061c0-1.14.917-2.062 2.049-2.062s2.049.923 2.049 2.062M66.245 72.824a2.055 2.055 0 0 1-2.049 2.061 2.055 2.055 0 0 1-2.049-2.061c0-1.14.917-2.062 2.05-2.062 1.131 0 2.048.923 2.048 2.062M42.682 82.1c0 7.401 5.963 13.4 13.318 13.4 7.355 0 13.318-5.999 13.318-13.4H42.682"/>
            <path fill="#FFF" d="M64.196 84.162H47.804a2.055 2.055 0 0 1-2.049-2.061h20.49a2.055 2.055 0 0 1-2.049 2.061"/>
            <g>
                <path fill="url(#e)" d="M.8 15.293H32v24.952H.8z" transform="translate(20.8 124.76)"/>
                <path fill="#FEA138" d="M51.867 140.456c0 8.595-6.925 15.562-15.467 15.562-8.542 0-15.467-6.967-15.467-15.562 0-8.594 6.925-15.561 15.467-15.561 8.542 0 15.467 6.967 15.467 15.561"/>
                <path fill="#726F6E" d="M36.372 156.018h-.008.008m-.028 0h-.01.01m-.028 0h-.01.01m-.029 0h-.009.01m-.035 0h-.002.002m-.03-.001h-.007.007m-.028 0h-.01a.07.07 0 0 1 .01 0m-.028 0h-.01.01m-.03-.001h-.007.008m-.034 0h-.002.002m-.03-.001h-.004.003m-.028 0h-.007.007m-.029-.002h-.006.006m-.03 0h-.004.005m-.092-.003h-.001.001m-.029-.001h-.002.002m16-15.58v-.01.01m0-.028v-.01.01m0-.03v-.009.01m0-.03v-.008.009m0-.034v-.003.003m0-.03v-.008.007m0-.028v-.01.01m0-.028l-.001-.01v.01m0-.03v-.008.009m-.001-.034v-.002.002m0-.031v-.004.004m-.001-.029v-.006.006m-.001-.028v-.007.007m0-.03v-.005.005m-.003-.092v-.002.002m-.001-.029v-.004.004m-.001-.03v-.002.001"/>
                <path fill="#FB8D12" d="M36.4 156.018h-.149l-.028-.001H36.157l-.02-.001h-.035l-.029-.001h-.035l-.022-.002H35.982l-.087-.003h-.001l-.028-.001h-.002a.65.65 0 0 0-.028 0c-4.862-.177-9.15-2.61-11.864-6.29a15.334 15.334 0 0 0 9.206 3.057c8.542 0 15.466-6.967 15.466-15.562 0-3.47-1.13-6.674-3.038-9.262a15.567 15.567 0 0 1 6.25 11.936v.001l.002.027v.033l.003.087v.005l.001.023V140.099l.001.025v.004l.001.029V140.213l.001.009v.056l.001.028v.15c0 8.595-6.924 15.562-15.466 15.562"/>
                <path fill="#433F3D" d="M28.862 136.386a.65.65 0 0 1-.348-1.195 12.716 12.716 0 0 1 3.11-1.457c.342-.107.7.088.806.429a.65.65 0 0 1-.427.81c-.965.3-1.906.74-2.795 1.31a.64.64 0 0 1-.346.103M43.938 136.386a.64.64 0 0 1-.346-.102 11.456 11.456 0 0 0-2.795-1.31.65.65 0 0 1-.427-.811.645.645 0 0 1 .806-.43c1.076.334 2.122.824 3.11 1.458a.65.65 0 0 1-.348 1.195M32.533 140.456c0 .716-.577 1.298-1.289 1.298a1.293 1.293 0 0 1-1.288-1.298c0-.716.576-1.297 1.288-1.297.712 0 1.29.581 1.29 1.297M42.844 140.456c0 .716-.576 1.298-1.288 1.298a1.293 1.293 0 0 1-1.29-1.298c0-.716.578-1.297 1.29-1.297.712 0 1.288.581 1.288 1.297M38.61 150.132c.955 0 1.59-1.035 1.122-1.874a3.813 3.813 0 0 0-3.332-1.966c-1.432 0-2.68.793-3.332 1.966-.467.84.167 1.874 1.123 1.874h4.418"/>
            </g>
            <g>
                <path fill="#FEA138" d="M156.667 109.87c0 8.594-6.925 15.562-15.467 15.562-8.542 0-15.467-6.968-15.467-15.562s6.925-15.562 15.467-15.562c8.542 0 15.467 6.968 15.467 15.562"/>
                <path fill="#726F6E" d="M141.172 125.432h-.009.01m-.029 0h-.01.01m-.028 0h-.01.01m-.029 0h-.009.01m-.035-.001h-.002.002m-.03 0h-.007.007m-.028 0l-.01-.001a.07.07 0 0 1 .01 0m-.028 0h-.01.01m-.029 0h-.009.009m-.033-.001h-.003.003m-.032-.001h-.003.003m-.028 0h-.007.007m-.028-.001h-.007.007m-.03-.001h-.005.005m-.092-.002h-.002.002m-.028-.002h-.004.004m-.03 0h-.002.001m16.03-15.58v-.009.01m0-.029v-.01.01m0-.029v-.01.01m0-.029v-.008.008m0-.034v-.002.002m0-.03v-.007.007m0-.029v-.009.01m-.001-.029v-.01.01m0-.029v-.009.01m-.001-.034v-.003.003m0-.032v-.003.003m-.001-.028v-.007a.04.04 0 0 0 0 .007m-.001-.029v-.006.006m0-.03v-.005.006m-.004-.093v-.003.003m0-.028v-.005.005m-.002-.03v-.003.002"/>
                <path fill="#FB8D12" d="M141.2 125.432H141.078l-.025-.001H140.995l-.01-.001h-.056l-.024-.001h-.003l-.029-.001h-.035l-.021-.001h-.007l-.023-.001h-.005l-.087-.002h-.002l-.026-.002h-.032c-4.861-.176-9.15-2.61-11.863-6.29a15.334 15.334 0 0 0 9.206 3.057c8.542 0 15.466-6.966 15.466-15.561 0-3.47-1.13-6.675-3.038-9.262a15.566 15.566 0 0 1 6.25 11.935v.002l.002.026v.033l.002.06.001.027v.006l.001.023V109.506a.04.04 0 0 0 0 .007l.001.025v.003l.001.03v.002a.51.51 0 0 0 0 .024v.039l.001.018v.038l.001.028v.15c0 8.594-6.924 15.562-15.466 15.562"/>
                <path fill="#433F3D" d="M146.356 111.167a1.942 1.942 0 0 1-1.934-1.945c0-.359.289-.65.644-.65.357 0 .645.291.645.65 0 .357.29.648.645.648a.647.647 0 0 0 .644-.648c0-.359.288-.65.644-.65.356 0 .645.291.645.65a1.942 1.942 0 0 1-1.933 1.945M136.044 111.167a1.942 1.942 0 0 1-1.933-1.945c0-.359.289-.65.645-.65.356 0 .644.291.644.65 0 .357.29.648.644.648a.647.647 0 0 0 .645-.648c0-.359.288-.65.644-.65.356 0 .645.291.645.65a1.942 1.942 0 0 1-1.934 1.945M143.778 118.299a2.586 2.586 0 0 1-2.578 2.594 2.586 2.586 0 0 1-2.578-2.594 2.586 2.586 0 0 1 2.578-2.593 2.586 2.586 0 0 1 2.578 2.593"/>
            </g>
        </g>
        <g filter="url(#f)" mask="url(#b)">
            <path fill="#FFFFFE" d="M128.924 106.821s9.44 25.405 9.44 66.858c0 2.26-.035 4.545-.1 6.839h-14.072l-1.428-22.216 1.428-51.481h4.732"/>
            <path fill="#5D2B2C" d="M85.21 32.822h9.935v29.506H74.658V43.446c0-5.867 4.725-10.624 10.552-10.624"/>
            <path fill="#5D2B2C" d="M100.964 32.822h-9.935v29.506h20.487V43.446c0-5.867-4.725-10.624-10.552-10.624"/>
            <path fill="#EC9A99" d="M115.43 61.837v8.445c0 2.257-1.818 4.086-4.06 4.086V57.751c2.242 0 4.06 1.83 4.06 4.086M74.286 57.751v16.617c-2.241 0-4.059-1.829-4.059-4.086v-8.445c0-2.256 1.818-4.086 4.059-4.086"/>
            <path fill="#3CB4E7" d="M106.699 96.625l22.154 10.833 5.696 114.071H70.62L56.696 107.46l23.42-10.834z"/>
            <path fill="#267597" d="M108.193 96.852l2.075.943-16.79 24.703-17.554-24.43 2.879-1.443 29.39.227"/>
            <path fill="#3986A7" d="M95.181 131.485l14.08-24.027 1.485.883-15.344 26.183-20.11-25.1 1.341-1.089 18.548 23.15"/>
            <path fill="#D3DFEA" d="M133.832 180.932l-1.723.084-2.383-49.895 1.723-.084 2.383 49.895"/>
            <path fill="#EC9A99" d="M107.921 96.794s-3.87 3.473-14.733 3.473-14.732-3.473-14.732-3.473V74.32h29.465v22.474"/>
            <path fill="#CC6A68" d="M108.49 93.676c-20.035-1.362-24.337-13.62-24.337-13.62h24.338v13.62"/>
            <path fill="#EC9A99" d="M83.844 42.457h18.344c4.025 0 7.287 3.424 7.287 7.647v31.464c-16.001 18.4-32.918.238-32.918.238V50.104c0-4.223 3.263-7.647 7.287-7.647"/>
            <path fill="#FFFFFE" d="M129.486 106.821l5.696 114.708H121.89L110.497 97.9l18.989 8.922"/>
            <path fill="#2F88AF" d="M83.583 112.324l-5.127-15.062 14.732 3.473-9.605 11.589M103.252 112.324l-9.605-11.589 14.733-3.473-5.128 15.062"/>
            <path fill="#CC6A68" d="M100.08 78.429l.658 1.604c-.202.084-3.298 1.343-7.122 1.343-2.207 0-4.655-.42-6.932-1.723l.854-1.51c5.48 3.144 12.472.314 12.542.286"/>
            <path fill="#5D2B2C" d="M93.726 70.497c9.216 0 10.94 6.972 10.94 6.972s-9.288.723-11.206-1.953c-1.445 2.966-11.206 1.953-11.206 1.953s2.256-6.972 11.472-6.972"/>
            <path fill="#5D2B2C" d="M76.727 66.751c0 8.233 7.022 10.837 7.022 10.837 0 6.739 7.404 7.234 9.437 7.244 2.032-.01 9.437-.505 9.437-7.244 0 0 7.022-2.604 7.022-10.837V50.104h2.068v33.53c0 9.847-18.199 12.993-18.527 12.956-.329.037-18.528-3.109-18.528-12.956v-33.53h2.069v16.647"/>
            <path fill="#CC6A68" d="M93.33 63.614l1.719-.127.516 7.123h-3.817v-1.736h1.962l-.38-5.26"/>
            <path fill="#5D2B2C" d="M93.17 82.605a2.697 2.697 0 0 1 2.686 2.706v2.544a2.696 2.696 0 0 1-2.687 2.705 2.696 2.696 0 0 1-2.687-2.705v-2.544a2.696 2.696 0 0 1 2.687-2.706M80.75 48.628c0 3.036-2.444 5.497-5.459 5.497V41.107h5.46v7.521"/>
            <path fill="#FFFFFE" d="M78.848 96.625l1.266 124.904H57.96l-1.265-114.708 22.153-10.196"/>
            <path fill="#FFFFFE" d="M61.613 106.821l1.428 51.48-1.428 22.217-14.072 1.736c-.065-2.294-.1-6.315-.1-8.575 0-41.453 9.258-66.745 9.258-66.745l4.914-.113"/>
            <path fill="#D3DFEA" d="M97.653 138.684h27.156c2.563 0 4.64 2.091 4.64 4.671v43.51c0 2.58-2.077 4.67-4.64 4.67H97.653c-2.562 0-4.639-2.09-4.639-4.67v-43.51c0-2.58 2.077-4.67 4.639-4.67"/>
            <path fill="#EC9A99" d="M95.58 160.352h12.04v5.757c0 5.19-4.179 9.398-9.334 9.398H89.85v-9.386c0-3.186 2.566-5.77 5.731-5.77"/>
            <path fill="#D3DFEA" d="M64.596 165.904l-1.709.225-2.787-21.484 1.709-.225 2.787 21.484"/>
        </g>
    </g>
</svg>
